<svg aria-hidden="true" style="position: absolute; width: 0; height: 0; overflow: hidden;" version="1.1" xmlns="http://www.w3.org/2000/svg" xmlns:xlink="http://www.w3.org/1999/xlink">
<defs>
<symbol id="icon-Map" viewBox="0 0 32 32">
<path d="M31.634 0.226c0.115 0.094 0.207 0.212 0.27 0.346s0.096 0.28 0.096 0.428v28c-0 0.231-0.080 0.455-0.227 0.634s-0.351 0.301-0.577 0.346l-10 2c-0.129 0.026-0.263 0.026-0.392 0l-9.804-1.96-9.804 1.96c-0.145 0.029-0.295 0.025-0.438-0.010s-0.277-0.103-0.392-0.197c-0.114-0.094-0.207-0.212-0.27-0.345s-0.096-0.28-0.096-0.428v-28c0-0.231 0.080-0.455 0.227-0.634s0.351-0.301 0.577-0.346l10-2c0.129-0.026 0.263-0.026 0.392 0l9.804 1.96 9.804-1.96c0.145-0.029 0.295-0.026 0.438 0.010s0.277 0.103 0.392 0.196zM20 3.82l-8-1.6v25.96l8 1.6v-25.96zM22 29.78l8-1.6v-25.96l-8 1.6v25.96zM10 28.18v-25.96l-8 1.6v25.96l8-1.6z"></path>
</symbol>
<symbol id="icon-radio-txt" viewBox="0 0 32 32">
<path d="M7.926 13.963c0-0.049 0.019-0.096 0.054-0.131s0.082-0.054 0.131-0.054h2.593c0.049 0 0.096 0.020 0.131 0.054s0.054 0.082 0.054 0.131v0.37c0 0.049-0.020 0.096-0.054 0.131s-0.082 0.054-0.131 0.054h-2.593c-0.049 0-0.096-0.020-0.131-0.054s-0.054-0.082-0.054-0.131v-0.37zM5.333 17.481c0-0.295 0.117-0.577 0.325-0.786s0.491-0.325 0.786-0.325c0.295 0 0.577 0.117 0.786 0.325s0.325 0.491 0.325 0.786c0 0.295-0.117 0.577-0.325 0.786s-0.491 0.325-0.786 0.325c-0.295 0-0.577-0.117-0.786-0.325s-0.325-0.491-0.325-0.786zM7.926 16.926c0-0.049 0.019-0.096 0.054-0.131s0.082-0.054 0.131-0.054h2.593c0.049 0 0.096 0.020 0.131 0.054s0.054 0.082 0.054 0.131v0.37c0 0.049-0.020 0.096-0.054 0.131s-0.082 0.054-0.131 0.054h-2.593c-0.049 0-0.096-0.020-0.131-0.054s-0.054-0.082-0.054-0.131v-0.37zM7.926 15.074c0-0.049 0.019-0.096 0.054-0.131s0.082-0.054 0.131-0.054h1.852c0.049 0 0.096 0.020 0.131 0.054s0.054 0.082 0.054 0.131c0 0.049-0.020 0.096-0.054 0.131s-0.082 0.054-0.131 0.054h-1.852c-0.049 0-0.096-0.020-0.131-0.054s-0.054-0.082-0.054-0.131zM7.926 18.037c0-0.049 0.019-0.096 0.054-0.131s0.082-0.054 0.131-0.054h1.852c0.049 0 0.096 0.020 0.131 0.054s0.054 0.082 0.054 0.131c0 0.049-0.020 0.096-0.054 0.131s-0.082 0.054-0.131 0.054h-1.852c-0.049 0-0.096-0.020-0.131-0.054s-0.054-0.082-0.054-0.131zM6.444 13.407c-0.146 0-0.29 0.029-0.425 0.085s-0.257 0.138-0.36 0.241c-0.103 0.103-0.185 0.226-0.241 0.36s-0.085 0.279-0.085 0.425c0 0.146 0.029 0.29 0.085 0.425s0.138 0.257 0.241 0.36c0.103 0.103 0.226 0.185 0.36 0.241s0.279 0.085 0.425 0.085c0.295 0 0.577-0.117 0.786-0.325s0.325-0.491 0.325-0.786c0-0.295-0.117-0.577-0.325-0.786s-0.491-0.325-0.786-0.325zM6.444 15.074c-0.147 0-0.289-0.059-0.393-0.163s-0.163-0.245-0.163-0.393c0-0.147 0.059-0.289 0.163-0.393s0.245-0.163 0.393-0.163c0.147 0 0.289 0.059 0.393 0.163s0.163 0.245 0.163 0.393c0 0.147-0.059 0.289-0.163 0.393s-0.245 0.163-0.393 0.163z"></path>
<path d="M14.147 17.778v-3.448h1.229c0.267 0 0.489 0.046 0.665 0.138 0.177 0.092 0.31 0.219 0.397 0.382 0.088 0.162 0.131 0.348 0.131 0.561 0 0.211-0.044 0.397-0.133 0.557-0.088 0.159-0.22 0.283-0.397 0.372-0.176 0.089-0.398 0.133-0.665 0.133h-0.931v-0.448h0.884c0.168 0 0.305-0.024 0.411-0.072 0.107-0.048 0.185-0.118 0.234-0.21s0.074-0.203 0.074-0.332c0-0.13-0.025-0.243-0.076-0.338-0.049-0.095-0.127-0.168-0.234-0.219-0.105-0.052-0.244-0.077-0.416-0.077h-0.653v3.002h-0.52zM15.849 16.222l0.852 1.556h-0.593l-0.835-1.556h0.576zM17.915 17.835c-0.164 0-0.312-0.030-0.444-0.091-0.132-0.062-0.237-0.151-0.315-0.268-0.076-0.117-0.114-0.26-0.114-0.429 0-0.146 0.028-0.266 0.084-0.36s0.132-0.169 0.227-0.224c0.095-0.055 0.202-0.097 0.32-0.125s0.238-0.049 0.36-0.064c0.155-0.018 0.281-0.033 0.377-0.044 0.097-0.012 0.167-0.032 0.21-0.059s0.066-0.071 0.066-0.131v-0.012c0-0.147-0.041-0.261-0.125-0.342-0.082-0.081-0.204-0.121-0.367-0.121-0.169 0-0.303 0.038-0.401 0.113-0.097 0.074-0.163 0.157-0.2 0.247l-0.473-0.108c0.056-0.157 0.138-0.284 0.246-0.38 0.109-0.098 0.234-0.168 0.375-0.212 0.141-0.045 0.29-0.067 0.446-0.067 0.103 0 0.213 0.012 0.328 0.037 0.117 0.024 0.226 0.067 0.327 0.131 0.102 0.064 0.186 0.155 0.251 0.274 0.065 0.118 0.098 0.271 0.098 0.46v1.717h-0.492v-0.354h-0.020c-0.033 0.065-0.081 0.129-0.146 0.192s-0.149 0.115-0.251 0.157c-0.102 0.041-0.224 0.062-0.367 0.062zM18.024 17.431c0.139 0 0.258-0.027 0.357-0.082 0.1-0.055 0.176-0.127 0.227-0.215 0.053-0.090 0.079-0.186 0.079-0.288v-0.333c-0.018 0.018-0.053 0.035-0.104 0.050-0.051 0.015-0.108 0.027-0.173 0.039-0.065 0.010-0.128 0.020-0.19 0.029-0.062 0.008-0.113 0.015-0.155 0.020-0.098 0.012-0.187 0.033-0.268 0.062-0.080 0.029-0.144 0.071-0.192 0.126-0.047 0.054-0.071 0.126-0.071 0.215 0 0.125 0.046 0.219 0.138 0.283 0.092 0.063 0.209 0.094 0.352 0.094zM20.83 17.828c-0.209 0-0.395-0.053-0.559-0.16-0.163-0.108-0.291-0.261-0.384-0.46-0.092-0.2-0.138-0.439-0.138-0.719s0.047-0.519 0.14-0.717c0.094-0.199 0.223-0.351 0.387-0.456s0.35-0.158 0.557-0.158c0.16 0 0.29 0.027 0.387 0.081 0.099 0.053 0.175 0.114 0.229 0.185 0.055 0.071 0.098 0.133 0.128 0.187h0.030v-1.281h0.503v3.448h-0.492v-0.402h-0.042c-0.030 0.055-0.074 0.118-0.131 0.189-0.056 0.071-0.134 0.132-0.232 0.185s-0.227 0.079-0.384 0.079zM20.941 17.399c0.145 0 0.267-0.038 0.367-0.114 0.101-0.077 0.177-0.185 0.229-0.322 0.053-0.137 0.079-0.296 0.079-0.478 0-0.18-0.026-0.337-0.077-0.471s-0.127-0.24-0.227-0.315c-0.1-0.075-0.223-0.113-0.37-0.113-0.151 0-0.278 0.039-0.379 0.118s-0.177 0.186-0.229 0.322c-0.051 0.136-0.076 0.289-0.076 0.46 0 0.173 0.026 0.328 0.077 0.466s0.128 0.247 0.229 0.328c0.102 0.080 0.228 0.12 0.377 0.12zM22.829 17.778v-2.586h0.503v2.586h-0.503zM23.083 14.793c-0.088 0-0.163-0.029-0.226-0.088-0.062-0.059-0.093-0.13-0.093-0.212 0-0.083 0.031-0.154 0.093-0.212 0.063-0.059 0.138-0.089 0.226-0.089s0.162 0.030 0.224 0.089c0.063 0.058 0.094 0.129 0.094 0.212 0 0.082-0.031 0.153-0.094 0.212-0.062 0.058-0.136 0.088-0.224 0.088zM25.099 17.83c-0.242 0-0.454-0.056-0.635-0.167s-0.321-0.267-0.421-0.466c-0.1-0.2-0.15-0.433-0.15-0.7 0-0.268 0.050-0.503 0.15-0.704s0.24-0.357 0.421-0.468c0.181-0.111 0.392-0.167 0.635-0.167s0.454 0.056 0.635 0.167c0.181 0.111 0.321 0.267 0.421 0.468s0.15 0.435 0.15 0.704c0 0.267-0.050 0.501-0.15 0.7s-0.24 0.355-0.421 0.466c-0.181 0.111-0.392 0.167-0.635 0.167zM25.101 17.407c0.157 0 0.287-0.042 0.391-0.125s0.18-0.194 0.229-0.332c0.051-0.138 0.076-0.29 0.076-0.456 0-0.165-0.025-0.317-0.076-0.455-0.049-0.139-0.126-0.251-0.229-0.335s-0.233-0.126-0.391-0.126c-0.158 0-0.29 0.042-0.394 0.126-0.103 0.084-0.18 0.196-0.231 0.335-0.049 0.138-0.074 0.29-0.074 0.455 0 0.166 0.025 0.318 0.074 0.456 0.051 0.138 0.127 0.249 0.231 0.332 0.104 0.083 0.236 0.125 0.394 0.125z"></path>
</symbol>
<symbol id="icon-bathroom-txt" viewBox="0 0 32 32">
<path d="M5.841 14.054c0.13-0.136 0.213-0.216 0.213-0.216 0.030 0.098 0.063 0.192 0.1 0.281 0.219 0.526 0.56 0.905 0.864 1.243 0.354 0.394 0.657 0.732 0.657 1.179 0 0.43-0.171 0.843-0.475 1.147s-0.717 0.475-1.147 0.475c-0.43 0-0.843-0.171-1.147-0.475s-0.475-0.717-0.475-1.147c0-0.901 0.968-2.022 1.408-2.486zM5.952 14.33c-0.174 0.188-0.339 0.383-0.494 0.586-0.196 0.257-0.388 0.543-0.53 0.83-0.143 0.29-0.225 0.562-0.225 0.795 0 0.358 0.142 0.702 0.396 0.956s0.597 0.396 0.956 0.396c0.358 0 0.702-0.142 0.956-0.396s0.396-0.597 0.396-0.956c0-0.325-0.215-0.583-0.589-1l-0.008-0.009c-0.281-0.313-0.619-0.688-0.856-1.202z"></path>
<path d="M5.122 15.939c0.222-0.444 0.464-0.744 0.566-0.846l0.191 0.191c-0.078 0.078-0.305 0.354-0.515 0.776l-0.242-0.121z"></path>
<path d="M10.266 17.297v-2.516h0.921c0.179 0 0.326 0.030 0.443 0.088s0.205 0.137 0.263 0.237c0.058 0.099 0.087 0.211 0.087 0.335 0 0.105-0.019 0.193-0.058 0.265s-0.090 0.129-0.155 0.172c-0.064 0.043-0.134 0.074-0.211 0.093v0.025c0.084 0.004 0.165 0.031 0.244 0.081s0.147 0.119 0.199 0.21 0.079 0.201 0.079 0.332c0 0.129-0.030 0.244-0.091 0.346s-0.152 0.182-0.278 0.242c-0.125 0.059-0.285 0.088-0.48 0.088h-0.964zM10.646 16.972h0.548c0.182 0 0.312-0.035 0.391-0.106s0.118-0.159 0.118-0.264c0-0.079-0.020-0.152-0.060-0.219s-0.097-0.119-0.172-0.158c-0.074-0.039-0.161-0.059-0.263-0.059h-0.561v0.806zM10.646 15.87h0.509c0.085 0 0.162-0.016 0.23-0.049s0.123-0.079 0.163-0.138c0.041-0.060 0.061-0.13 0.061-0.211 0-0.104-0.036-0.191-0.109-0.262s-0.185-0.106-0.335-0.106h-0.518v0.765zM13.049 17.339c-0.12 0-0.228-0.022-0.324-0.066s-0.173-0.11-0.23-0.195c-0.056-0.085-0.084-0.19-0.084-0.313 0-0.106 0.020-0.194 0.061-0.263s0.096-0.123 0.166-0.163c0.070-0.040 0.147-0.070 0.233-0.091s0.174-0.036 0.263-0.047c0.113-0.013 0.205-0.024 0.275-0.032s0.122-0.023 0.154-0.043 0.048-0.052 0.048-0.096v-0.009c0-0.107-0.030-0.19-0.091-0.249s-0.149-0.088-0.268-0.088c-0.124 0-0.221 0.027-0.292 0.082s-0.119 0.114-0.146 0.181l-0.345-0.079c0.041-0.115 0.101-0.207 0.179-0.278s0.171-0.123 0.274-0.155c0.103-0.033 0.212-0.049 0.326-0.049 0.075 0 0.155 0.009 0.24 0.027s0.165 0.049 0.238 0.096c0.075 0.047 0.136 0.113 0.183 0.2s0.071 0.198 0.071 0.335v1.253h-0.359v-0.258h-0.015c-0.024 0.047-0.059 0.094-0.107 0.14s-0.109 0.084-0.183 0.114c-0.075 0.030-0.164 0.045-0.268 0.045zM13.129 17.044c0.102 0 0.188-0.020 0.26-0.060s0.128-0.093 0.166-0.157c0.039-0.066 0.058-0.136 0.058-0.21v-0.243c-0.013 0.013-0.039 0.025-0.076 0.037s-0.079 0.020-0.127 0.028c-0.047 0.007-0.094 0.014-0.139 0.021s-0.083 0.011-0.113 0.015c-0.071 0.009-0.136 0.024-0.195 0.045s-0.105 0.052-0.14 0.092c-0.034 0.039-0.052 0.092-0.052 0.157 0 0.091 0.034 0.16 0.101 0.206s0.153 0.069 0.257 0.069zM15.351 15.41v0.295h-1.031v-0.295h1.031zM14.596 14.958h0.367v1.785c0 0.071 0.011 0.125 0.032 0.161s0.049 0.059 0.082 0.072c0.034 0.012 0.072 0.018 0.112 0.018 0.030 0 0.055-0.002 0.077-0.006s0.039-0.007 0.052-0.010l0.066 0.303c-0.021 0.008-0.052 0.016-0.091 0.025s-0.088 0.014-0.147 0.015c-0.097 0.002-0.187-0.016-0.27-0.052s-0.151-0.092-0.203-0.167c-0.052-0.075-0.077-0.17-0.077-0.284v-1.861zM16.165 16.177v1.12h-0.367v-2.516h0.362v0.936h0.023c0.044-0.102 0.112-0.182 0.203-0.242s0.21-0.090 0.356-0.090c0.129 0 0.242 0.027 0.339 0.080s0.173 0.133 0.226 0.238c0.054 0.105 0.081 0.236 0.081 0.393v1.2h-0.367v-1.156c0-0.138-0.036-0.246-0.107-0.322s-0.17-0.115-0.297-0.115c-0.087 0-0.165 0.018-0.233 0.055s-0.122 0.091-0.161 0.162c-0.038 0.070-0.058 0.156-0.058 0.256zM17.879 17.297v-1.887h0.355v0.3h0.020c0.034-0.102 0.095-0.181 0.182-0.24s0.187-0.088 0.297-0.088c0.023 0 0.050 0.001 0.081 0.002s0.057 0.004 0.075 0.006v0.351c-0.015-0.004-0.041-0.009-0.079-0.014s-0.075-0.009-0.113-0.009c-0.087 0-0.164 0.018-0.232 0.055s-0.12 0.086-0.16 0.151c-0.039 0.064-0.059 0.137-0.059 0.219v1.152h-0.367zM19.934 17.335c-0.177 0-0.331-0.041-0.463-0.122s-0.234-0.195-0.307-0.34c-0.073-0.146-0.109-0.316-0.109-0.511s0.036-0.367 0.109-0.514 0.175-0.26 0.307-0.341c0.132-0.081 0.286-0.122 0.463-0.122s0.331 0.041 0.463 0.122c0.132 0.081 0.234 0.195 0.307 0.341s0.109 0.318 0.109 0.514c0 0.195-0.036 0.365-0.109 0.511s-0.175 0.259-0.307 0.34c-0.132 0.081-0.286 0.122-0.463 0.122zM19.935 17.027c0.115 0 0.21-0.030 0.285-0.091s0.131-0.141 0.167-0.242c0.037-0.101 0.055-0.212 0.055-0.333s-0.018-0.231-0.055-0.332c-0.036-0.102-0.092-0.183-0.167-0.244s-0.17-0.092-0.285-0.092c-0.115 0-0.211 0.031-0.287 0.092s-0.131 0.143-0.168 0.244c-0.036 0.101-0.054 0.211-0.054 0.332s0.018 0.232 0.054 0.333c0.037 0.101 0.093 0.181 0.168 0.242s0.172 0.091 0.287 0.091zM22.018 17.335c-0.177 0-0.331-0.041-0.463-0.122s-0.234-0.195-0.307-0.34-0.109-0.316-0.109-0.511c0-0.196 0.036-0.367 0.109-0.514s0.175-0.26 0.307-0.341c0.132-0.081 0.286-0.122 0.463-0.122s0.331 0.041 0.463 0.122c0.132 0.081 0.234 0.195 0.307 0.341s0.109 0.318 0.109 0.514c0 0.195-0.037 0.365-0.109 0.511s-0.175 0.259-0.307 0.34c-0.132 0.081-0.286 0.122-0.463 0.122zM22.019 17.027c0.115 0 0.21-0.030 0.285-0.091s0.131-0.141 0.167-0.242c0.037-0.101 0.055-0.212 0.055-0.333s-0.018-0.231-0.055-0.332c-0.036-0.102-0.092-0.183-0.167-0.244s-0.17-0.092-0.285-0.092c-0.115 0-0.211 0.031-0.287 0.092s-0.131 0.143-0.168 0.244c-0.036 0.101-0.054 0.211-0.054 0.332s0.018 0.232 0.054 0.333c0.037 0.101 0.093 0.181 0.168 0.242s0.172 0.091 0.287 0.091zM23.308 17.297v-1.887h0.353v0.307h0.023c0.039-0.104 0.104-0.185 0.193-0.243s0.196-0.088 0.321-0.088c0.126 0 0.232 0.030 0.317 0.088s0.149 0.14 0.191 0.243h0.019c0.045-0.101 0.117-0.181 0.215-0.241s0.215-0.091 0.351-0.091c0.171 0 0.311 0.054 0.419 0.161s0.163 0.269 0.163 0.485v1.265h-0.367v-1.231c0-0.128-0.035-0.22-0.104-0.278s-0.153-0.086-0.249-0.086c-0.12 0-0.213 0.037-0.279 0.111s-0.099 0.167-0.099 0.281v1.203h-0.366v-1.254c0-0.102-0.032-0.185-0.096-0.247s-0.147-0.093-0.249-0.093c-0.070 0-0.134 0.018-0.193 0.055s-0.105 0.086-0.141 0.151c-0.035 0.065-0.053 0.14-0.053 0.225v1.163h-0.367z"></path>
</symbol>
<symbol id="icon-automat-txt" viewBox="0 0 32 32">
<path d="M5.706 14.741c0-0.111 0.044-0.218 0.123-0.297s0.185-0.123 0.297-0.123h0.28c0.111 0 0.218 0.044 0.297 0.123s0.123 0.185 0.123 0.297v0.28c0 0.111-0.044 0.218-0.123 0.297s-0.185 0.123-0.297 0.123v0.28h1.538c0.037 0 0.073 0.015 0.099 0.041s0.041 0.062 0.041 0.099v0.28c0 0.037-0.015 0.073-0.041 0.099s-0.062 0.041-0.099 0.041c-0.037 0-0.073-0.015-0.099-0.041s-0.041-0.062-0.041-0.099v-0.14h-1.399v0.14c0 0.037-0.015 0.073-0.041 0.099s-0.062 0.041-0.099 0.041c-0.037 0-0.073-0.015-0.099-0.041s-0.041-0.062-0.041-0.099v-0.14h-1.399v0.14c0 0.037-0.015 0.073-0.041 0.099s-0.062 0.041-0.099 0.041c-0.037 0-0.073-0.015-0.099-0.041s-0.041-0.062-0.041-0.099v-0.28c0-0.037 0.015-0.073 0.041-0.099s0.062-0.041 0.099-0.041h1.538v-0.28c-0.111 0-0.218-0.044-0.297-0.123s-0.123-0.185-0.123-0.297v-0.28zM6.406 15.161c0.037 0 0.073-0.015 0.099-0.041s0.041-0.062 0.041-0.099v-0.28c0-0.037-0.015-0.073-0.041-0.099s-0.062-0.041-0.099-0.041h-0.28c-0.037 0-0.073 0.015-0.099 0.041s-0.041 0.062-0.041 0.099v0.28c0 0.037 0.015 0.073 0.041 0.099s0.062 0.041 0.099 0.041h0.28zM4.028 16.979c0-0.111 0.044-0.218 0.123-0.297s0.185-0.123 0.297-0.123h0.28c0.111 0 0.218 0.044 0.297 0.123s0.123 0.185 0.123 0.297v0.28c0 0.111-0.044 0.218-0.123 0.297s-0.185 0.123-0.297 0.123h-0.28c-0.111 0-0.218-0.044-0.297-0.123s-0.123-0.185-0.123-0.297v-0.28zM4.448 16.839c-0.037 0-0.073 0.015-0.099 0.041s-0.041 0.062-0.041 0.099v0.28c0 0.037 0.015 0.073 0.041 0.099s0.062 0.041 0.099 0.041h0.28c0.037 0 0.073-0.015 0.099-0.041s0.041-0.062 0.041-0.099v-0.28c0-0.037-0.015-0.073-0.041-0.099s-0.062-0.041-0.099-0.041h-0.28zM5.706 16.979c0-0.111 0.044-0.218 0.123-0.297s0.185-0.123 0.297-0.123h0.28c0.111 0 0.218 0.044 0.297 0.123s0.123 0.185 0.123 0.297v0.28c0 0.111-0.044 0.218-0.123 0.297s-0.185 0.123-0.297 0.123h-0.28c-0.111 0-0.218-0.044-0.297-0.123s-0.123-0.185-0.123-0.297v-0.28zM6.126 16.839c-0.037 0-0.073 0.015-0.099 0.041s-0.041 0.062-0.041 0.099v0.28c0 0.037 0.015 0.073 0.041 0.099s0.062 0.041 0.099 0.041h0.28c0.037 0 0.073-0.015 0.099-0.041s0.041-0.062 0.041-0.099v-0.28c0-0.037-0.015-0.073-0.041-0.099s-0.062-0.041-0.099-0.041h-0.28zM7.385 16.979c0-0.111 0.044-0.218 0.123-0.297s0.185-0.123 0.297-0.123h0.28c0.111 0 0.218 0.044 0.297 0.123s0.123 0.185 0.123 0.297v0.28c0 0.111-0.044 0.218-0.123 0.297s-0.185 0.123-0.297 0.123h-0.28c-0.111 0-0.218-0.044-0.297-0.123s-0.123-0.185-0.123-0.297v-0.28zM7.804 16.839c-0.037 0-0.073 0.015-0.099 0.041s-0.041 0.062-0.041 0.099v0.28c0 0.037 0.015 0.073 0.041 0.099s0.062 0.041 0.099 0.041h0.28c0.037 0 0.073-0.015 0.099-0.041s0.041-0.062 0.041-0.099v-0.28c0-0.037-0.015-0.073-0.041-0.099s-0.062-0.041-0.099-0.041h-0.28z"></path>
<path d="M10.857 17.343h-0.417l0.937-2.604h0.454l0.937 2.604h-0.417l-0.736-2.131h-0.020l-0.737 2.131zM10.927 16.323h1.353v0.331h-1.353v-0.331zM14.351 16.533v-1.143h0.381v1.953h-0.374v-0.338h-0.020c-0.045 0.104-0.117 0.191-0.216 0.261s-0.221 0.103-0.367 0.103c-0.125 0-0.236-0.028-0.333-0.083s-0.171-0.139-0.226-0.248c-0.054-0.109-0.081-0.245-0.081-0.406v-1.242h0.38v1.196c0 0.133 0.037 0.239 0.111 0.318s0.169 0.118 0.287 0.118c0.071 0 0.142-0.018 0.212-0.053s0.13-0.089 0.177-0.161c0.047-0.072 0.071-0.164 0.070-0.275zM16.155 15.39v0.305h-1.067v-0.305h1.067zM15.374 14.922h0.38v1.847c0 0.074 0.011 0.129 0.033 0.167s0.050 0.061 0.085 0.075c0.036 0.013 0.074 0.019 0.116 0.019 0.031 0 0.057-0.002 0.080-0.006s0.041-0.008 0.053-0.010l0.069 0.314c-0.022 0.008-0.053 0.017-0.094 0.025s-0.092 0.014-0.153 0.015c-0.1 0.002-0.193-0.016-0.28-0.053s-0.156-0.095-0.21-0.173c-0.053-0.078-0.080-0.176-0.080-0.294v-1.926zM17.377 17.382c-0.183 0-0.343-0.042-0.479-0.126s-0.242-0.201-0.318-0.352c-0.075-0.151-0.113-0.327-0.113-0.529s0.038-0.38 0.113-0.531 0.181-0.27 0.318-0.353c0.136-0.084 0.296-0.126 0.479-0.126s0.343 0.042 0.479 0.126c0.136 0.084 0.242 0.202 0.318 0.353s0.113 0.329 0.113 0.531c0 0.202-0.038 0.378-0.113 0.529s-0.181 0.268-0.318 0.352c-0.136 0.084-0.296 0.126-0.479 0.126zM17.378 17.063c0.119 0 0.217-0.031 0.295-0.094s0.136-0.146 0.173-0.25c0.038-0.104 0.057-0.219 0.057-0.345s-0.019-0.239-0.057-0.343c-0.037-0.105-0.095-0.189-0.173-0.253s-0.176-0.095-0.295-0.095c-0.12 0-0.219 0.032-0.297 0.095s-0.136 0.148-0.174 0.253c-0.037 0.104-0.056 0.219-0.056 0.343s0.019 0.24 0.056 0.345c0.038 0.104 0.096 0.188 0.174 0.25s0.178 0.094 0.297 0.094zM18.712 17.343v-1.953h0.365v0.318h0.024c0.041-0.108 0.107-0.192 0.2-0.252s0.203-0.092 0.332-0.092c0.131 0 0.24 0.031 0.328 0.092s0.155 0.145 0.197 0.252h0.020c0.047-0.104 0.121-0.187 0.223-0.249s0.223-0.094 0.364-0.094c0.177 0 0.322 0.056 0.434 0.167s0.169 0.278 0.169 0.502v1.31h-0.38v-1.274c0-0.132-0.036-0.228-0.108-0.287s-0.158-0.089-0.258-0.089c-0.124 0-0.22 0.038-0.289 0.114s-0.103 0.172-0.103 0.291v1.245h-0.379v-1.298c0-0.106-0.033-0.191-0.099-0.256s-0.152-0.097-0.258-0.097c-0.072 0-0.139 0.019-0.2 0.057s-0.109 0.089-0.146 0.156c-0.036 0.067-0.055 0.145-0.055 0.233v1.204h-0.38zM22.445 17.386c-0.124 0-0.236-0.023-0.336-0.069s-0.179-0.114-0.238-0.202c-0.058-0.088-0.086-0.196-0.086-0.324 0-0.11 0.021-0.201 0.064-0.272s0.1-0.128 0.172-0.169c0.072-0.042 0.153-0.073 0.242-0.094s0.18-0.037 0.272-0.048c0.117-0.014 0.212-0.025 0.285-0.033s0.126-0.024 0.159-0.044c0.033-0.020 0.049-0.053 0.049-0.099v-0.009c0-0.111-0.031-0.197-0.094-0.258s-0.154-0.092-0.277-0.092c-0.128 0-0.229 0.028-0.303 0.085s-0.123 0.118-0.151 0.187l-0.357-0.081c0.042-0.119 0.104-0.214 0.186-0.287s0.177-0.127 0.284-0.16c0.107-0.034 0.219-0.051 0.337-0.051 0.078 0 0.161 0.009 0.248 0.028s0.171 0.051 0.247 0.099c0.077 0.048 0.14 0.117 0.189 0.207s0.074 0.205 0.074 0.347v1.297h-0.371v-0.267h-0.015c-0.025 0.049-0.062 0.097-0.111 0.145s-0.112 0.087-0.189 0.118c-0.077 0.031-0.17 0.047-0.277 0.047zM22.527 17.081c0.105 0 0.195-0.021 0.27-0.062s0.133-0.096 0.172-0.163c0.040-0.068 0.060-0.14 0.060-0.217v-0.252c-0.014 0.014-0.040 0.026-0.079 0.038s-0.082 0.021-0.131 0.029c-0.049 0.008-0.097 0.015-0.144 0.022s-0.085 0.011-0.117 0.015c-0.074 0.009-0.141 0.025-0.202 0.047s-0.108 0.054-0.145 0.095c-0.036 0.041-0.053 0.095-0.053 0.163 0 0.094 0.035 0.165 0.104 0.214s0.158 0.071 0.266 0.071zM24.826 15.39v0.305h-1.067v-0.305h1.067zM24.046 14.922h0.38v1.847c0 0.074 0.011 0.129 0.033 0.167s0.051 0.061 0.085 0.075c0.036 0.013 0.074 0.019 0.116 0.019 0.031 0 0.057-0.002 0.080-0.006s0.041-0.008 0.053-0.010l0.069 0.314c-0.022 0.008-0.053 0.017-0.094 0.025s-0.092 0.014-0.153 0.015c-0.1 0.002-0.193-0.016-0.28-0.053s-0.156-0.095-0.21-0.173c-0.053-0.078-0.080-0.176-0.080-0.294v-1.926zM25.247 17.343v-1.953h0.38v1.953h-0.38zM25.439 15.088c-0.066 0-0.123-0.022-0.171-0.066s-0.070-0.098-0.070-0.16c0-0.063 0.023-0.116 0.070-0.16s0.104-0.067 0.171-0.067c0.066 0 0.122 0.022 0.169 0.067s0.071 0.097 0.071 0.16c0 0.062-0.024 0.115-0.071 0.16s-0.103 0.066-0.169 0.066zM26.961 17.382c-0.189 0-0.352-0.043-0.488-0.128s-0.24-0.206-0.313-0.357c-0.073-0.152-0.109-0.326-0.109-0.521 0-0.198 0.037-0.373 0.112-0.525s0.18-0.272 0.315-0.357 0.295-0.128 0.479-0.128c0.148 0 0.281 0.028 0.397 0.083s0.21 0.131 0.281 0.229c0.072 0.098 0.115 0.213 0.128 0.345h-0.37c-0.020-0.092-0.067-0.17-0.14-0.236s-0.169-0.099-0.29-0.099c-0.106 0-0.199 0.028-0.279 0.084s-0.14 0.134-0.184 0.237c-0.044 0.102-0.066 0.222-0.066 0.361 0 0.142 0.022 0.265 0.065 0.369s0.104 0.184 0.183 0.24c0.080 0.057 0.173 0.085 0.281 0.085 0.072 0 0.137-0.013 0.196-0.039s0.109-0.066 0.149-0.116c0.041-0.050 0.069-0.11 0.085-0.181h0.37c-0.013 0.126-0.055 0.239-0.123 0.338s-0.16 0.177-0.276 0.234c-0.114 0.057-0.249 0.085-0.403 0.085z"></path>
</symbol>
<symbol id="icon-btn-wind-txt" viewBox="0 0 32 32">
<path d="M12.368 13.241c-0.305 0-0.597 0.121-0.813 0.337s-0.337 0.508-0.337 0.813c0 0.061-0.024 0.119-0.067 0.163s-0.102 0.067-0.163 0.067-0.119-0.024-0.163-0.067c-0.043-0.043-0.067-0.102-0.067-0.163 0-0.318 0.094-0.629 0.271-0.894s0.428-0.471 0.722-0.593c0.294-0.122 0.618-0.154 0.93-0.092s0.599 0.215 0.824 0.44c0.225 0.225 0.378 0.512 0.44 0.824s0.030 0.636-0.092 0.93c-0.122 0.294-0.328 0.545-0.593 0.722s-0.576 0.271-0.894 0.271h-5.517c-0.061 0-0.119-0.024-0.163-0.067s-0.067-0.102-0.067-0.163 0.024-0.119 0.067-0.163c0.043-0.043 0.102-0.067 0.163-0.067h5.517c0.305 0 0.597-0.121 0.813-0.337s0.337-0.508 0.337-0.813-0.121-0.597-0.337-0.813c-0.216-0.216-0.508-0.337-0.813-0.337zM9.149 13.701c-0.122 0-0.239 0.048-0.325 0.135s-0.135 0.203-0.135 0.325c0 0.061-0.024 0.119-0.067 0.163s-0.102 0.067-0.163 0.067-0.119-0.024-0.163-0.067c-0.043-0.043-0.067-0.102-0.067-0.163 0-0.182 0.054-0.36 0.155-0.511s0.245-0.269 0.413-0.339c0.168-0.070 0.353-0.088 0.531-0.052s0.342 0.123 0.471 0.252c0.129 0.129 0.216 0.292 0.252 0.471s0.017 0.363-0.052 0.531-0.187 0.312-0.339 0.413c-0.151 0.101-0.329 0.155-0.511 0.155h-2.299c-0.061 0-0.119-0.024-0.163-0.067s-0.067-0.102-0.067-0.163 0.024-0.119 0.067-0.163c0.043-0.043 0.102-0.067 0.163-0.067h2.299c0.122 0 0.239-0.048 0.325-0.135s0.135-0.203 0.135-0.325c0-0.122-0.048-0.239-0.135-0.325s-0.203-0.135-0.325-0.135zM6.621 16.69c0-0.061 0.024-0.119 0.067-0.163s0.102-0.067 0.163-0.067h4.617c0.273 0 0.539 0.081 0.766 0.232s0.404 0.367 0.508 0.619c0.104 0.252 0.132 0.529 0.079 0.797s-0.185 0.513-0.377 0.706c-0.193 0.193-0.439 0.324-0.706 0.377s-0.545 0.026-0.797-0.078c-0.252-0.104-0.467-0.281-0.619-0.508s-0.232-0.494-0.232-0.766c0-0.061 0.024-0.119 0.067-0.163s0.102-0.067 0.163-0.067 0.119 0.024 0.163 0.067c0.043 0.043 0.067 0.102 0.067 0.163 0 0.182 0.054 0.36 0.155 0.511s0.245 0.269 0.413 0.339 0.353 0.088 0.531 0.052c0.178-0.035 0.342-0.123 0.471-0.252s0.216-0.292 0.252-0.471c0.035-0.178 0.017-0.363-0.052-0.531s-0.187-0.312-0.339-0.413c-0.151-0.101-0.329-0.155-0.511-0.155h-4.617c-0.061 0-0.119-0.024-0.163-0.067s-0.067-0.102-0.067-0.163z"></path>
<path d="M17.858 18.207h-0.685l1.54-4.28h0.746l1.54 4.28h-0.685l-1.21-3.503h-0.033l-1.212 3.503zM17.973 16.531h2.224v0.543h-2.224v-0.543zM24.97 15.319h-0.652c-0.025-0.139-0.072-0.262-0.14-0.368s-0.152-0.196-0.251-0.27c-0.099-0.074-0.21-0.13-0.332-0.167-0.121-0.038-0.25-0.056-0.387-0.056-0.247 0-0.467 0.062-0.662 0.186-0.194 0.124-0.347 0.306-0.46 0.545-0.111 0.24-0.167 0.532-0.167 0.878 0 0.348 0.056 0.642 0.167 0.882 0.113 0.24 0.267 0.421 0.462 0.543s0.415 0.184 0.658 0.184c0.135 0 0.263-0.018 0.385-0.054 0.123-0.038 0.233-0.093 0.332-0.165s0.183-0.161 0.251-0.265c0.070-0.106 0.118-0.227 0.144-0.364l0.652 0.002c-0.035 0.21-0.102 0.404-0.203 0.581-0.099 0.176-0.226 0.327-0.382 0.456-0.155 0.127-0.332 0.225-0.531 0.295s-0.417 0.105-0.652 0.105c-0.371 0-0.701-0.088-0.991-0.263-0.29-0.177-0.518-0.43-0.685-0.759-0.166-0.329-0.249-0.721-0.249-1.177 0-0.457 0.084-0.849 0.251-1.177 0.167-0.329 0.396-0.581 0.686-0.757 0.29-0.177 0.619-0.265 0.988-0.265 0.227 0 0.439 0.033 0.635 0.098 0.198 0.064 0.375 0.159 0.533 0.284 0.157 0.124 0.288 0.276 0.391 0.456 0.103 0.178 0.173 0.382 0.209 0.612z"></path>
</symbol>
<symbol id="icon-petrol-txt" viewBox="0 0 32 32">
<path d="M6.385 13.982c0-0.049 0.019-0.095 0.054-0.13s0.081-0.054 0.13-0.054h1.835c0.049 0 0.095 0.019 0.13 0.054s0.054 0.081 0.054 0.13v1.835c0 0.049-0.019 0.095-0.054 0.13s-0.081 0.054-0.13 0.054h-1.835c-0.049 0-0.095-0.019-0.13-0.054s-0.054-0.081-0.054-0.13v-1.835z"></path>
<path d="M5.651 13.798c0-0.195 0.077-0.381 0.215-0.519s0.324-0.215 0.519-0.215h2.202c0.195 0 0.381 0.077 0.519 0.215s0.215 0.324 0.215 0.519v2.936c0.195 0 0.381 0.077 0.519 0.215s0.215 0.324 0.215 0.519v0.183c0 0.049 0.019 0.095 0.054 0.13s0.081 0.054 0.13 0.054c0.049 0 0.095-0.019 0.13-0.054s0.054-0.081 0.054-0.13v-1.651h-0.184c-0.049 0-0.095-0.019-0.13-0.054s-0.054-0.081-0.054-0.13v-1.147c0-0.049 0.019-0.095 0.054-0.13s0.081-0.054 0.13-0.054h0.549c-0.004-0.175-0.019-0.328-0.074-0.448-0.029-0.070-0.080-0.129-0.145-0.168-0.068-0.040-0.17-0.072-0.33-0.072-0.049 0-0.095-0.019-0.13-0.054s-0.054-0.081-0.054-0.13c0-0.049 0.019-0.095 0.054-0.13s0.081-0.054 0.13-0.054c0.207-0.001 0.38 0.041 0.518 0.123 0.141 0.084 0.233 0.202 0.291 0.333 0.108 0.24 0.108 0.538 0.108 0.764v1.165c0 0.024-0.005 0.048-0.014 0.070s-0.023 0.043-0.040 0.060c-0.017 0.017-0.037 0.031-0.060 0.040s-0.046 0.014-0.070 0.014h-0.184v1.651c0 0.146-0.058 0.286-0.161 0.389s-0.243 0.161-0.389 0.161c-0.146 0-0.286-0.058-0.389-0.161s-0.161-0.243-0.161-0.389v-0.183c0-0.097-0.039-0.191-0.107-0.259s-0.162-0.107-0.259-0.107v1.468h0.184c0.049 0 0.095 0.019 0.13 0.054s0.054 0.081 0.054 0.13c0 0.049-0.019 0.095-0.054 0.13s-0.081 0.054-0.13 0.054h-4.037c-0.049 0-0.095-0.019-0.13-0.054s-0.054-0.081-0.054-0.13c0-0.049 0.019-0.095 0.054-0.13s0.081-0.054 0.13-0.054h0.183v-4.771zM8.954 13.798c0-0.097-0.039-0.191-0.107-0.259s-0.162-0.107-0.259-0.107h-2.202c-0.097 0-0.191 0.039-0.26 0.107s-0.107 0.162-0.107 0.259v4.771h2.936v-4.771z"></path>
<path d="M13.891 17.761v-3.416h1.218c0.266 0 0.486 0.048 0.661 0.145s0.305 0.229 0.392 0.397c0.087 0.167 0.13 0.355 0.13 0.564 0 0.21-0.044 0.399-0.132 0.567-0.087 0.167-0.218 0.299-0.394 0.397-0.175 0.097-0.394 0.145-0.659 0.145h-0.837v-0.437h0.791c0.168 0 0.304-0.029 0.409-0.087 0.104-0.059 0.181-0.139 0.23-0.24s0.073-0.216 0.073-0.345c0-0.129-0.024-0.244-0.073-0.344s-0.126-0.178-0.232-0.235c-0.105-0.057-0.242-0.085-0.414-0.085h-0.647v2.974h-0.515zM17.928 17.813c-0.252 0-0.47-0.054-0.652-0.162-0.181-0.109-0.321-0.262-0.42-0.459-0.098-0.198-0.147-0.43-0.147-0.696 0-0.262 0.049-0.494 0.147-0.694 0.099-0.2 0.237-0.356 0.414-0.469 0.178-0.112 0.386-0.168 0.624-0.168 0.145 0 0.285 0.024 0.42 0.072s0.257 0.123 0.365 0.225c0.108 0.102 0.193 0.235 0.255 0.399 0.062 0.162 0.093 0.36 0.093 0.592v0.177h-2.037v-0.374h1.548c0-0.131-0.027-0.247-0.080-0.349-0.053-0.102-0.128-0.183-0.225-0.242-0.096-0.059-0.208-0.088-0.337-0.088-0.14 0-0.262 0.034-0.367 0.103-0.103 0.068-0.183 0.157-0.24 0.267-0.056 0.109-0.083 0.227-0.083 0.355v0.292c0 0.171 0.030 0.317 0.090 0.437 0.061 0.12 0.146 0.212 0.255 0.275 0.109 0.062 0.236 0.093 0.382 0.093 0.095 0 0.181-0.013 0.259-0.040 0.078-0.028 0.145-0.069 0.202-0.123s0.1-0.122 0.13-0.202l0.472 0.085c-0.038 0.139-0.106 0.261-0.203 0.365-0.097 0.103-0.219 0.184-0.365 0.242-0.146 0.057-0.312 0.085-0.499 0.085zM20.777 15.199v0.4h-1.399v-0.4h1.399zM19.753 14.585h0.499v2.424c0 0.097 0.014 0.17 0.043 0.218 0.029 0.048 0.066 0.081 0.112 0.098 0.047 0.017 0.097 0.025 0.152 0.025 0.040 0 0.075-0.003 0.105-0.008s0.053-0.010 0.070-0.013l0.090 0.412c-0.029 0.011-0.070 0.022-0.123 0.033-0.053 0.012-0.12 0.019-0.2 0.020-0.131 0.002-0.254-0.021-0.367-0.070s-0.205-0.125-0.275-0.227c-0.070-0.102-0.105-0.231-0.105-0.385v-2.527zM21.328 17.761v-2.562h0.482v0.407h0.027c0.047-0.138 0.129-0.246 0.247-0.325 0.119-0.080 0.254-0.12 0.404-0.12 0.031 0 0.068 0.001 0.11 0.003 0.043 0.002 0.077 0.005 0.102 0.008v0.477c-0.020-0.006-0.056-0.012-0.107-0.018-0.051-0.008-0.102-0.012-0.153-0.012-0.118 0-0.223 0.025-0.315 0.075-0.091 0.049-0.163 0.117-0.217 0.205-0.053 0.087-0.080 0.186-0.080 0.297v1.565h-0.499zM24.119 17.813c-0.24 0-0.45-0.055-0.629-0.165s-0.318-0.264-0.417-0.462c-0.099-0.198-0.148-0.429-0.148-0.694 0-0.266 0.049-0.498 0.148-0.697s0.238-0.354 0.417-0.464c0.179-0.11 0.389-0.165 0.629-0.165s0.45 0.055 0.629 0.165c0.179 0.11 0.318 0.265 0.417 0.464s0.148 0.431 0.148 0.697c0 0.265-0.049 0.496-0.148 0.694s-0.238 0.352-0.417 0.462c-0.179 0.11-0.389 0.165-0.629 0.165zM24.12 17.395c0.156 0 0.285-0.041 0.387-0.123s0.178-0.192 0.227-0.329c0.050-0.137 0.075-0.287 0.075-0.452 0-0.163-0.025-0.314-0.075-0.45-0.049-0.138-0.125-0.249-0.227-0.332s-0.231-0.125-0.387-0.125c-0.157 0-0.287 0.042-0.39 0.125-0.102 0.083-0.178 0.194-0.229 0.332-0.049 0.137-0.073 0.287-0.073 0.45 0 0.165 0.024 0.315 0.073 0.452 0.050 0.137 0.126 0.246 0.229 0.329 0.103 0.082 0.233 0.123 0.39 0.123zM26.368 14.345v3.416h-0.499v-3.416h0.499z"></path>
</symbol>
<symbol id="icon-btn2adults-txt" viewBox="0 0 32 32">
<path d="M9.333 17.905c0 0 0.317 0 0.317-0.317s-0.317-1.27-1.587-1.27c-1.27 0-1.587 0.952-1.587 1.27s0.317 0.317 0.317 0.317h2.54zM6.801 17.587l-0.007-0.001c0-0.084 0.053-0.327 0.241-0.546 0.175-0.205 0.483-0.405 1.029-0.405s0.853 0.2 1.029 0.405c0.188 0.219 0.241 0.463 0.241 0.546l-0.003 0.001-0.004 0.001h-2.526zM8.063 15.683c0.168 0 0.33-0.067 0.449-0.186s0.186-0.281 0.186-0.449c0-0.168-0.067-0.33-0.186-0.449s-0.281-0.186-0.449-0.186c-0.168 0-0.33 0.067-0.449 0.186s-0.186 0.281-0.186 0.449c0 0.168 0.067 0.33 0.186 0.449s0.281 0.186 0.449 0.186zM9.016 15.048c0 0.125-0.025 0.249-0.072 0.364s-0.118 0.221-0.206 0.309c-0.088 0.088-0.193 0.159-0.309 0.206s-0.239 0.072-0.364 0.072c-0.125 0-0.249-0.025-0.364-0.072s-0.221-0.118-0.309-0.206c-0.088-0.088-0.159-0.193-0.206-0.309s-0.072-0.239-0.072-0.364c0-0.253 0.1-0.495 0.279-0.673s0.421-0.279 0.673-0.279c0.253 0 0.495 0.1 0.673 0.279s0.279 0.421 0.279 0.673zM6.773 16.406c-0.127-0.040-0.258-0.066-0.39-0.078-0.074-0.007-0.149-0.011-0.224-0.011-1.27 0-1.587 0.952-1.587 1.27 0 0.212 0.106 0.317 0.317 0.317h1.338c-0.047-0.099-0.071-0.208-0.069-0.317 0-0.321 0.12-0.648 0.346-0.922 0.077-0.093 0.167-0.181 0.269-0.259zM6.133 16.635c-0.188 0.282-0.289 0.613-0.292 0.952h-0.952c0-0.083 0.052-0.327 0.241-0.547 0.173-0.202 0.474-0.399 1.003-0.405v-0zM5.048 15.206c0-0.253 0.1-0.495 0.279-0.673s0.421-0.279 0.673-0.279c0.253 0 0.495 0.1 0.673 0.279s0.279 0.421 0.279 0.673c0 0.253-0.1 0.495-0.279 0.673s-0.421 0.279-0.673 0.279c-0.253 0-0.495-0.1-0.673-0.279s-0.279-0.421-0.279-0.673zM6 14.571c-0.168 0-0.33 0.067-0.449 0.186s-0.186 0.281-0.186 0.449c0 0.168 0.067 0.33 0.186 0.449s0.281 0.186 0.449 0.186c0.168 0 0.33-0.067 0.449-0.186s0.186-0.281 0.186-0.449c0-0.168-0.067-0.33-0.186-0.449s-0.281-0.186-0.449-0.186z"></path>
<path d="M12.086 17.524v-0.323l1-1.036c0.107-0.113 0.195-0.211 0.264-0.296 0.070-0.086 0.123-0.167 0.157-0.244s0.052-0.159 0.052-0.245c0-0.098-0.023-0.183-0.069-0.254s-0.109-0.127-0.189-0.166c-0.080-0.039-0.17-0.059-0.27-0.059-0.106 0-0.198 0.022-0.277 0.065s-0.139 0.104-0.182 0.183c-0.042 0.079-0.063 0.171-0.063 0.277h-0.426c0-0.18 0.041-0.337 0.124-0.472s0.196-0.239 0.341-0.313c0.144-0.075 0.308-0.113 0.492-0.113 0.186 0 0.349 0.037 0.491 0.111s0.254 0.173 0.333 0.3c0.080 0.126 0.12 0.268 0.12 0.427 0 0.11-0.021 0.217-0.062 0.322-0.040 0.105-0.111 0.222-0.212 0.351s-0.241 0.283-0.421 0.466l-0.587 0.615v0.022h1.33v0.382h-1.945zM16.304 17.573c-0.14 0-0.267-0.026-0.381-0.078s-0.203-0.129-0.27-0.229c-0.065-0.1-0.098-0.223-0.098-0.368 0-0.125 0.024-0.228 0.072-0.309s0.113-0.145 0.195-0.192c0.082-0.047 0.173-0.083 0.274-0.107s0.204-0.042 0.309-0.055c0.133-0.015 0.24-0.028 0.323-0.038s0.143-0.027 0.18-0.050 0.056-0.061 0.056-0.113v-0.010c0-0.126-0.036-0.224-0.107-0.293s-0.175-0.104-0.315-0.104c-0.145 0-0.26 0.032-0.343 0.097s-0.14 0.134-0.172 0.212l-0.405-0.092c0.048-0.135 0.118-0.243 0.211-0.326s0.201-0.144 0.322-0.182c0.121-0.039 0.249-0.058 0.382-0.058 0.088 0 0.182 0.011 0.281 0.032s0.193 0.058 0.28 0.113c0.088 0.055 0.159 0.133 0.215 0.235s0.084 0.232 0.084 0.394v1.472h-0.421v-0.303h-0.017c-0.028 0.056-0.070 0.111-0.126 0.165s-0.127 0.099-0.215 0.134c-0.088 0.036-0.192 0.053-0.315 0.053zM16.398 17.227c0.119 0 0.221-0.024 0.306-0.071s0.151-0.109 0.195-0.185c0.045-0.077 0.068-0.159 0.068-0.247v-0.286c-0.015 0.015-0.045 0.030-0.089 0.043s-0.093 0.024-0.149 0.033c-0.056 0.009-0.11 0.017-0.163 0.025s-0.097 0.012-0.133 0.017c-0.084 0.011-0.16 0.028-0.229 0.053s-0.123 0.061-0.165 0.108c-0.040 0.046-0.061 0.108-0.061 0.185 0 0.107 0.039 0.188 0.118 0.242s0.179 0.081 0.302 0.081zM18.802 17.567c-0.179 0-0.339-0.046-0.479-0.137-0.139-0.092-0.249-0.224-0.329-0.394s-0.118-0.377-0.118-0.616 0.040-0.444 0.12-0.615c0.081-0.17 0.191-0.301 0.332-0.391s0.3-0.136 0.478-0.136c0.138 0 0.248 0.023 0.332 0.069s0.15 0.098 0.196 0.159c0.047 0.061 0.084 0.114 0.11 0.16h0.026v-1.098h0.431v2.955h-0.421v-0.345h-0.036c-0.026 0.047-0.064 0.101-0.113 0.162s-0.114 0.114-0.199 0.159-0.194 0.068-0.329 0.068zM18.898 17.199c0.124 0 0.229-0.033 0.315-0.098s0.152-0.158 0.196-0.276c0.045-0.117 0.068-0.254 0.068-0.41 0-0.154-0.022-0.289-0.066-0.404s-0.109-0.205-0.195-0.27c-0.086-0.064-0.191-0.097-0.317-0.097-0.13 0-0.238 0.034-0.325 0.101s-0.152 0.159-0.196 0.276c-0.043 0.116-0.065 0.248-0.065 0.394 0 0.148 0.022 0.281 0.066 0.4s0.11 0.212 0.196 0.281c0.088 0.068 0.195 0.102 0.323 0.102zM21.92 16.605v-1.297h0.433v2.216h-0.424v-0.384h-0.023c-0.051 0.118-0.133 0.217-0.245 0.296s-0.251 0.117-0.417 0.117c-0.142 0-0.268-0.031-0.378-0.094s-0.194-0.157-0.257-0.281c-0.062-0.124-0.092-0.278-0.092-0.46v-1.41h0.431v1.358c0 0.151 0.042 0.271 0.126 0.361s0.192 0.134 0.326 0.134c0.081 0 0.161-0.020 0.241-0.061s0.148-0.102 0.201-0.183c0.054-0.082 0.080-0.186 0.079-0.312zM23.364 14.569v2.955h-0.431v-2.955h0.431zM24.979 15.307v0.346h-1.211v-0.346h1.211zM24.093 14.776h0.431v2.097c0 0.084 0.012 0.147 0.038 0.189s0.057 0.070 0.097 0.085c0.040 0.014 0.084 0.022 0.131 0.022 0.035 0 0.065-0.002 0.091-0.007s0.046-0.009 0.061-0.012l0.078 0.356c-0.025 0.010-0.061 0.019-0.107 0.029s-0.104 0.016-0.173 0.017c-0.114 0.002-0.219-0.018-0.317-0.061s-0.177-0.108-0.238-0.196c-0.061-0.088-0.091-0.2-0.091-0.333v-2.186zM27.082 15.848l-0.391 0.069c-0.016-0.050-0.042-0.098-0.078-0.143-0.035-0.045-0.082-0.082-0.141-0.111s-0.134-0.043-0.224-0.043c-0.122 0-0.224 0.027-0.306 0.082s-0.123 0.124-0.123 0.209c0 0.074 0.027 0.134 0.082 0.179s0.143 0.082 0.266 0.111l0.352 0.081c0.204 0.047 0.356 0.12 0.456 0.218s0.15 0.226 0.15 0.382c0 0.133-0.038 0.251-0.115 0.355-0.076 0.103-0.182 0.184-0.319 0.242s-0.293 0.088-0.472 0.088c-0.248 0-0.451-0.053-0.608-0.159s-0.253-0.258-0.289-0.455l0.417-0.064c0.026 0.109 0.079 0.191 0.16 0.247s0.186 0.082 0.316 0.082c0.141 0 0.254-0.029 0.339-0.088s0.127-0.132 0.127-0.218c0-0.069-0.026-0.127-0.078-0.175-0.051-0.047-0.129-0.083-0.235-0.107l-0.375-0.082c-0.207-0.047-0.36-0.122-0.459-0.225-0.098-0.103-0.147-0.233-0.147-0.391 0-0.131 0.036-0.245 0.11-0.343s0.174-0.175 0.303-0.229c0.129-0.056 0.277-0.084 0.443-0.084 0.239 0 0.428 0.052 0.566 0.156s0.229 0.241 0.273 0.414z"></path>
</symbol>
<symbol id="icon-Btn-kitchen-txt" viewBox="0 0 32 32">
<path d="M4.846 15.35c-0.024 0-0.048 0.005-0.070 0.016s-0.041 0.026-0.056 0.045c-0.015 0.019-0.026 0.041-0.032 0.065s-0.006 0.048-0 0.072l0.537 2.418c0.040 0.181 0.141 0.342 0.285 0.458s0.324 0.179 0.509 0.179h1.884c0.185-0 0.364-0.063 0.509-0.179s0.245-0.277 0.285-0.458l0.043-0.192c0.249 0.047 0.506-0.005 0.717-0.145s0.36-0.356 0.415-0.603c0.055-0.247 0.012-0.506-0.121-0.721s-0.343-0.372-0.588-0.435l0.072-0.322c0.005-0.024 0.005-0.048-0-0.072s-0.016-0.046-0.032-0.065c-0.015-0.019-0.035-0.034-0.056-0.045s-0.046-0.016-0.070-0.016h-4.228zM8.911 17.463c-0.034 0-0.069-0.003-0.103-0.008l0.282-1.268c0.15 0.044 0.28 0.14 0.365 0.271s0.12 0.289 0.098 0.444c-0.022 0.155-0.099 0.297-0.217 0.4s-0.269 0.16-0.426 0.16zM5.541 17.894l-0.493-2.22h3.822l-0.493 2.22c-0.024 0.108-0.084 0.205-0.171 0.275s-0.194 0.107-0.305 0.107h-1.884c-0.111-0-0.219-0.038-0.305-0.107s-0.147-0.166-0.171-0.275z"></path>
<path d="M6.114 13.659l-0.001 0.001-0.005 0.006c-0.024 0.033-0.046 0.066-0.066 0.101-0.017 0.028-0.033 0.057-0.046 0.087-0.008 0.020-0.011 0.030-0.012 0.033v0.001c0.004 0.029 0.014 0.056 0.030 0.081 0.024 0.043 0.058 0.088 0.1 0.145l0.003 0.004c0.038 0.051 0.085 0.113 0.12 0.177 0.036 0.065 0.072 0.148 0.072 0.242 0 0.061-0.021 0.12-0.039 0.161-0.019 0.044-0.041 0.086-0.066 0.126-0.026 0.043-0.053 0.084-0.082 0.124l-0.006 0.008-0.002 0.003-0.001 0.001c-0.026 0.035-0.064 0.057-0.107 0.064s-0.086-0.005-0.121-0.031c-0.035-0.026-0.057-0.064-0.064-0.107s0.005-0.086 0.031-0.121l0.006-0.008c0.024-0.033 0.046-0.066 0.066-0.101 0.017-0.028 0.033-0.057 0.046-0.087 0.008-0.020 0.011-0.030 0.012-0.034-0.003-0.029-0.013-0.057-0.029-0.082-0.030-0.050-0.064-0.099-0.1-0.145l-0.003-0.004c-0.044-0.056-0.084-0.115-0.12-0.177-0.044-0.073-0.069-0.157-0.072-0.242 0-0.061 0.021-0.12 0.039-0.161 0.019-0.045 0.044-0.089 0.066-0.126 0.026-0.042 0.053-0.084 0.082-0.124l0.008-0.011c0.026-0.035 0.064-0.057 0.107-0.064s0.086 0.005 0.121 0.031c0.035 0.026 0.057 0.064 0.064 0.107s-0.005 0.086-0.031 0.121zM7.089 13.659l-0.001 0.001-0.005 0.006c-0.024 0.033-0.046 0.066-0.066 0.101-0.017 0.028-0.033 0.057-0.046 0.087-0.008 0.020-0.011 0.030-0.012 0.033v0.001c0.004 0.029 0.014 0.056 0.030 0.081 0.024 0.043 0.058 0.088 0.1 0.145l0.003 0.004c0.038 0.051 0.085 0.113 0.12 0.177 0.036 0.065 0.072 0.148 0.072 0.242 0 0.061-0.021 0.12-0.039 0.161-0.019 0.044-0.041 0.086-0.066 0.126-0.026 0.043-0.053 0.084-0.082 0.124l-0.006 0.008-0.002 0.003-0.001 0.001c-0.026 0.035-0.064 0.057-0.107 0.064s-0.086-0.005-0.121-0.031c-0.035-0.026-0.057-0.064-0.064-0.107s0.005-0.086 0.031-0.121l0.001-0.001 0.005-0.006c0.024-0.033 0.046-0.066 0.066-0.101 0.017-0.028 0.033-0.057 0.046-0.087 0.008-0.020 0.011-0.030 0.012-0.034-0.003-0.029-0.013-0.057-0.029-0.082-0.030-0.050-0.064-0.099-0.101-0.145l-0.003-0.004c-0.044-0.056-0.084-0.115-0.12-0.177-0.044-0.073-0.069-0.157-0.072-0.242 0-0.061 0.021-0.12 0.039-0.161 0.019-0.045 0.044-0.089 0.066-0.126 0.026-0.042 0.053-0.084 0.082-0.124l0.008-0.011c0.026-0.035 0.064-0.057 0.107-0.064s0.086 0.005 0.121 0.031c0.035 0.026 0.057 0.064 0.064 0.107s-0.005 0.086-0.031 0.121zM8.065 13.659l-0.001 0.001-0.005 0.006c-0.024 0.033-0.046 0.066-0.066 0.101-0.017 0.028-0.033 0.057-0.046 0.087-0.008 0.020-0.011 0.030-0.012 0.033v0.001c0.004 0.029 0.014 0.056 0.030 0.081 0.024 0.043 0.058 0.088 0.1 0.145l0.003 0.004c0.038 0.051 0.085 0.113 0.12 0.177 0.036 0.065 0.072 0.148 0.072 0.242 0 0.061-0.021 0.12-0.039 0.161-0.019 0.044-0.041 0.086-0.066 0.126-0.025 0.043-0.053 0.084-0.082 0.124l-0.006 0.008-0.002 0.003-0.001 0.001c-0.026 0.035-0.064 0.057-0.107 0.064s-0.086-0.005-0.121-0.031c-0.035-0.026-0.057-0.064-0.064-0.107s0.005-0.086 0.031-0.121l0.001-0.001 0.005-0.006c0.024-0.033 0.046-0.066 0.066-0.101 0.017-0.028 0.033-0.057 0.046-0.087 0.008-0.020 0.011-0.030 0.012-0.034-0.003-0.029-0.013-0.057-0.029-0.082-0.030-0.050-0.064-0.099-0.101-0.145l-0.003-0.004c-0.044-0.056-0.084-0.115-0.12-0.177-0.044-0.073-0.069-0.157-0.072-0.242 0-0.061 0.021-0.12 0.039-0.161 0.019-0.045 0.044-0.089 0.066-0.126 0.026-0.042 0.053-0.084 0.082-0.124l0.008-0.011c0.026-0.035 0.064-0.057 0.107-0.064s0.086 0.005 0.121 0.031c0.035 0.026 0.057 0.064 0.064 0.107s-0.005 0.086-0.031 0.121z"></path>
<path d="M12.343 17.561v-3.027h0.457v1.446h0.037l1.27-1.446h0.575l-1.221 1.363 1.225 1.664h-0.55l-0.979-1.353-0.358 0.411v0.942h-0.457zM15.214 17.561v-2.271h0.442v2.271h-0.442zM15.437 14.94c-0.077 0-0.143-0.026-0.198-0.077-0.054-0.052-0.081-0.114-0.081-0.186 0-0.073 0.027-0.135 0.081-0.186 0.055-0.052 0.121-0.078 0.198-0.078s0.142 0.026 0.197 0.078c0.055 0.051 0.083 0.113 0.083 0.186s-0.028 0.134-0.083 0.186c-0.054 0.051-0.12 0.077-0.197 0.077zM17.31 15.29v0.355h-1.24v-0.355h1.24zM16.403 14.746h0.442v2.148c0 0.086 0.013 0.15 0.038 0.194s0.059 0.071 0.099 0.087c0.041 0.015 0.086 0.022 0.134 0.022 0.035 0 0.067-0.002 0.093-0.007s0.047-0.009 0.062-0.012l0.080 0.365c-0.026 0.010-0.062 0.020-0.109 0.030s-0.106 0.017-0.177 0.018c-0.116 0.002-0.225-0.019-0.325-0.062s-0.182-0.11-0.244-0.201c-0.062-0.091-0.093-0.204-0.093-0.341v-2.239zM18.731 17.607c-0.22 0-0.409-0.050-0.568-0.149-0.158-0.101-0.279-0.239-0.364-0.415s-0.127-0.378-0.127-0.606c0-0.231 0.043-0.434 0.13-0.611s0.209-0.316 0.367-0.415 0.343-0.149 0.557-0.149c0.172 0 0.326 0.032 0.461 0.096s0.244 0.152 0.327 0.266c0.084 0.114 0.134 0.248 0.149 0.401h-0.43c-0.024-0.106-0.078-0.198-0.163-0.275s-0.196-0.115-0.337-0.115c-0.123 0-0.231 0.033-0.324 0.098-0.092 0.064-0.163 0.156-0.214 0.275s-0.077 0.258-0.077 0.42c0 0.166 0.025 0.308 0.075 0.429s0.121 0.213 0.213 0.279c0.093 0.066 0.202 0.099 0.327 0.099 0.084 0 0.16-0.015 0.228-0.046 0.069-0.032 0.127-0.076 0.173-0.134 0.047-0.058 0.080-0.128 0.099-0.21h0.43c-0.016 0.147-0.064 0.278-0.143 0.393s-0.187 0.206-0.321 0.272c-0.133 0.066-0.289 0.099-0.469 0.099zM20.579 16.213v1.348h-0.442v-3.027h0.436v1.126h0.028c0.053-0.122 0.135-0.219 0.244-0.291s0.252-0.108 0.429-0.108c0.156 0 0.292 0.032 0.408 0.096s0.208 0.16 0.272 0.287c0.065 0.126 0.098 0.284 0.098 0.473v1.444h-0.442v-1.391c0-0.167-0.043-0.296-0.129-0.387-0.086-0.093-0.205-0.139-0.358-0.139-0.104 0-0.198 0.022-0.281 0.067-0.082 0.044-0.146 0.109-0.194 0.195-0.046 0.085-0.070 0.187-0.070 0.307zM23.619 17.607c-0.224 0-0.416-0.048-0.578-0.143s-0.285-0.232-0.372-0.407c-0.087-0.175-0.13-0.381-0.13-0.616 0-0.233 0.043-0.438 0.13-0.615s0.21-0.316 0.367-0.415c0.158-0.1 0.342-0.149 0.553-0.149 0.128 0 0.252 0.021 0.372 0.064s0.228 0.109 0.324 0.2c0.096 0.091 0.171 0.208 0.226 0.353 0.055 0.144 0.083 0.319 0.083 0.525v0.157h-1.805v-0.331h1.372c0-0.116-0.024-0.219-0.071-0.309s-0.114-0.162-0.2-0.214c-0.085-0.052-0.184-0.078-0.299-0.078-0.124 0-0.233 0.031-0.325 0.092-0.092 0.060-0.163 0.139-0.213 0.236-0.049 0.097-0.074 0.202-0.074 0.315v0.259c0 0.152 0.027 0.281 0.080 0.387 0.054 0.106 0.13 0.188 0.226 0.244s0.209 0.083 0.339 0.083c0.084 0 0.16-0.012 0.229-0.035s0.129-0.061 0.179-0.109 0.089-0.108 0.115-0.179l0.418 0.075c-0.034 0.123-0.094 0.231-0.18 0.324-0.086 0.092-0.194 0.163-0.324 0.214-0.129 0.050-0.276 0.075-0.442 0.075zM25.526 16.213v1.348h-0.442v-2.271h0.424v0.37h0.028c0.052-0.12 0.134-0.217 0.245-0.29 0.112-0.073 0.254-0.109 0.424-0.109 0.155 0 0.29 0.033 0.406 0.098s0.207 0.16 0.271 0.287 0.096 0.284 0.096 0.472v1.444h-0.442v-1.391c0-0.165-0.043-0.293-0.129-0.386-0.086-0.094-0.203-0.14-0.353-0.14-0.102 0-0.194 0.022-0.273 0.067s-0.141 0.109-0.188 0.195c-0.045 0.085-0.068 0.187-0.068 0.307z"></path>
</symbol>
<symbol id="icon-bi_droplet" viewBox="0 0 32 32">
<path d="M14.42 1.6c0.96-1.010 1.58-1.6 1.58-1.6 0.219 0.725 0.466 1.417 0.742 2.076 1.624 3.892 4.146 6.7 6.394 9.2 2.62 2.916 4.864 5.414 4.864 8.724 0 3.183-1.264 6.235-3.515 8.485s-5.303 3.515-8.485 3.515-6.235-1.264-8.485-3.515c-2.25-2.25-3.515-5.303-3.515-8.485 0-6.664 7.16-14.966 10.42-18.4zM15.246 3.642c-1.285 1.389-2.505 2.837-3.658 4.338-1.452 1.9-2.872 4.016-3.92 6.14-1.060 2.146-1.668 4.156-1.668 5.88 0 2.652 1.054 5.196 2.929 7.071s4.419 2.929 7.071 2.929 5.196-1.054 7.071-2.929c1.875-1.875 2.929-4.419 2.929-7.071 0-2.402-1.592-4.314-4.362-7.4l-0.060-0.064c-2.078-2.316-4.578-5.094-6.332-8.894z"></path>
<path d="M9.106 15.552c1.64-3.282 3.434-5.506 4.186-6.26l1.416 1.416c-0.58 0.58-2.256 2.622-3.814 5.74l-1.788-0.896z"></path>
</symbol>
<symbol id="icon-tv" viewBox="0 0 32 32">
<path d="M0 8c0 0 0-4 4-4h24c0 0 4 0 4 4v12c0 0 0 4-4 4h-8c0 1.333 0.167 2.333 0.5 3h1.5c0.265 0 0.52 0.105 0.707 0.293s0.293 0.442 0.293 0.707c0 0.265-0.105 0.52-0.293 0.707s-0.442 0.293-0.707 0.293h-12c-0.265 0-0.52-0.105-0.707-0.293s-0.293-0.442-0.293-0.707c0-0.265 0.105-0.52 0.293-0.707s0.442-0.293 0.707-0.293h1.5c0.333-0.667 0.5-1.667 0.5-3h-8c0 0-4 0-4-4v-12zM2.796 6.29c-0.22 0.153-0.395 0.361-0.508 0.604-0.168 0.353-0.266 0.735-0.288 1.126v11.98c0 0.65 0.156 1.004 0.29 1.204 0.14 0.208 0.341 0.377 0.604 0.508 0.338 0.162 0.703 0.259 1.076 0.286l0.050 0.002h23.98c0.65 0 1.004-0.156 1.204-0.29 0.22-0.153 0.395-0.361 0.508-0.604 0.162-0.338 0.259-0.703 0.286-1.076l0.002-0.050v-11.98c0-0.65-0.156-1.004-0.29-1.204-0.153-0.22-0.361-0.395-0.604-0.508-0.353-0.168-0.736-0.266-1.126-0.288h-23.98c-0.65 0-1.004 0.156-1.204 0.29z"></path>
</symbol>
<symbol id="icon-bi_grid-1x2" viewBox="0 0 32 32">
<path d="M12 2h-10v28h10v-28zM30 2h-10v10h10v-10zM30 20v10h-10v-10h10zM0 2c0-0.53 0.211-1.039 0.586-1.414s0.884-0.586 1.414-0.586h10c0.53 0 1.039 0.211 1.414 0.586s0.586 0.884 0.586 1.414v28c0 0.53-0.211 1.039-0.586 1.414s-0.884 0.586-1.414 0.586h-10c-0.53 0-1.039-0.211-1.414-0.586s-0.586-0.884-0.586-1.414v-28zM18 2c0-0.53 0.211-1.039 0.586-1.414s0.884-0.586 1.414-0.586h10c0.53 0 1.039 0.211 1.414 0.586s0.586 0.884 0.586 1.414v10c0 0.53-0.211 1.039-0.586 1.414s-0.884 0.586-1.414 0.586h-10c-0.53 0-1.039-0.211-1.414-0.586s-0.586-0.884-0.586-1.414v-10zM20 18c-0.53 0-1.039 0.211-1.414 0.586s-0.586 0.884-0.586 1.414v10c0 0.53 0.211 1.039 0.586 1.414s0.884 0.586 1.414 0.586h10c0.53 0 1.039-0.211 1.414-0.586s0.586-0.884 0.586-1.414v-10c0-0.53-0.211-1.039-0.586-1.414s-0.884-0.586-1.414-0.586h-10z"></path>
</symbol>
<symbol id="icon-wind" viewBox="0 0 32 32">
<path d="M25 4c-1.326 0-2.598 0.527-3.535 1.464s-1.465 2.209-1.465 3.536c0 0.265-0.105 0.52-0.293 0.707s-0.442 0.293-0.707 0.293c-0.265 0-0.52-0.105-0.707-0.293s-0.293-0.442-0.293-0.707c0-1.384 0.41-2.738 1.18-3.889s1.862-2.048 3.142-2.578c1.279-0.53 2.687-0.668 4.044-0.398s2.605 0.937 3.584 1.916c0.979 0.979 1.646 2.226 1.916 3.584s0.131 2.765-0.398 4.044c-0.53 1.279-1.427 2.372-2.578 3.142s-2.505 1.18-3.889 1.18h-24c-0.265 0-0.52-0.105-0.707-0.293s-0.293-0.442-0.293-0.707c0-0.265 0.105-0.52 0.293-0.707s0.442-0.293 0.707-0.293h24c1.326 0 2.598-0.527 3.535-1.464s1.465-2.209 1.465-3.536-0.527-2.598-1.465-3.536c-0.938-0.938-2.209-1.464-3.535-1.464zM11 6c-0.53 0-1.039 0.211-1.414 0.586s-0.586 0.884-0.586 1.414c0 0.265-0.105 0.52-0.293 0.707s-0.442 0.293-0.707 0.293c-0.265 0-0.52-0.105-0.707-0.293s-0.293-0.442-0.293-0.707c0-0.791 0.235-1.564 0.674-2.222s1.064-1.17 1.795-1.473c0.731-0.303 1.535-0.382 2.311-0.228s1.489 0.535 2.048 1.095 0.94 1.272 1.095 2.048c0.154 0.776 0.075 1.58-0.228 2.311s-0.815 1.356-1.473 1.795-1.431 0.674-2.222 0.674h-10c-0.265 0-0.52-0.105-0.707-0.293s-0.293-0.442-0.293-0.707c0-0.265 0.105-0.52 0.293-0.707s0.442-0.293 0.707-0.293h10c0.53 0 1.039-0.211 1.414-0.586s0.586-0.884 0.586-1.414c0-0.53-0.211-1.039-0.586-1.414s-0.884-0.586-1.414-0.586zM0 19c0-0.265 0.105-0.52 0.293-0.707s0.442-0.293 0.707-0.293h20.084c1.187 0 2.347 0.352 3.333 1.011s1.756 1.596 2.21 2.693c0.454 1.096 0.573 2.303 0.341 3.467s-0.803 2.233-1.642 3.072c-0.839 0.839-1.908 1.411-3.072 1.642s-2.37 0.113-3.467-0.341-2.033-1.223-2.693-2.21c-0.659-0.987-1.011-2.147-1.011-3.333 0-0.265 0.105-0.52 0.293-0.707s0.442-0.293 0.707-0.293c0.265 0 0.52 0.105 0.707 0.293s0.293 0.442 0.293 0.707c0 0.791 0.235 1.564 0.674 2.222s1.064 1.171 1.795 1.473c0.731 0.303 1.535 0.382 2.311 0.228s1.489-0.535 2.048-1.095 0.94-1.272 1.095-2.048c0.154-0.776 0.075-1.58-0.228-2.311s-0.815-1.356-1.473-1.795c-0.658-0.439-1.431-0.674-2.222-0.674h-20.084c-0.265 0-0.52-0.105-0.707-0.293s-0.293-0.442-0.293-0.707z"></path>
</symbol>
<symbol id="icon-diagram" viewBox="0 0 32 32">
<path d="M12 7c0-0.796 0.316-1.559 0.879-2.121s1.326-0.879 2.121-0.879h2c0.796 0 1.559 0.316 2.121 0.879s0.879 1.326 0.879 2.121v2c0 0.796-0.316 1.559-0.879 2.121s-1.326 0.879-2.121 0.879v2h11c0.265 0 0.52 0.105 0.707 0.293s0.293 0.442 0.293 0.707v2c0 0.265-0.105 0.52-0.293 0.707s-0.442 0.293-0.707 0.293c-0.265 0-0.52-0.105-0.707-0.293s-0.293-0.442-0.293-0.707v-1h-10v1c0 0.265-0.105 0.52-0.293 0.707s-0.442 0.293-0.707 0.293c-0.265 0-0.52-0.105-0.707-0.293s-0.293-0.442-0.293-0.707v-1h-10v1c0 0.265-0.105 0.52-0.293 0.707s-0.442 0.293-0.707 0.293c-0.265 0-0.52-0.105-0.707-0.293s-0.293-0.442-0.293-0.707v-2c0-0.265 0.105-0.52 0.293-0.707s0.442-0.293 0.707-0.293h11v-2c-0.796 0-1.559-0.316-2.121-0.879s-0.879-1.326-0.879-2.121v-2zM17 10c0.265 0 0.52-0.105 0.707-0.293s0.293-0.442 0.293-0.707v-2c0-0.265-0.105-0.52-0.293-0.707s-0.442-0.293-0.707-0.293h-2c-0.265 0-0.52 0.105-0.707 0.293s-0.293 0.442-0.293 0.707v2c0 0.265 0.105 0.52 0.293 0.707s0.442 0.293 0.707 0.293h2zM0 23c0-0.796 0.316-1.559 0.879-2.121s1.326-0.879 2.121-0.879h2c0.796 0 1.559 0.316 2.121 0.879s0.879 1.326 0.879 2.121v2c0 0.796-0.316 1.559-0.879 2.121s-1.326 0.879-2.121 0.879h-2c-0.796 0-1.559-0.316-2.121-0.879s-0.879-1.326-0.879-2.121v-2zM3 22c-0.265 0-0.52 0.105-0.707 0.293s-0.293 0.442-0.293 0.707v2c0 0.265 0.105 0.52 0.293 0.707s0.442 0.293 0.707 0.293h2c0.265 0 0.52-0.105 0.707-0.293s0.293-0.442 0.293-0.707v-2c0-0.265-0.105-0.52-0.293-0.707s-0.442-0.293-0.707-0.293h-2zM12 23c0-0.796 0.316-1.559 0.879-2.121s1.326-0.879 2.121-0.879h2c0.796 0 1.559 0.316 2.121 0.879s0.879 1.326 0.879 2.121v2c0 0.796-0.316 1.559-0.879 2.121s-1.326 0.879-2.121 0.879h-2c-0.796 0-1.559-0.316-2.121-0.879s-0.879-1.326-0.879-2.121v-2zM15 22c-0.265 0-0.52 0.105-0.707 0.293s-0.293 0.442-0.293 0.707v2c0 0.265 0.105 0.52 0.293 0.707s0.442 0.293 0.707 0.293h2c0.265 0 0.52-0.105 0.707-0.293s0.293-0.442 0.293-0.707v-2c0-0.265-0.105-0.52-0.293-0.707s-0.442-0.293-0.707-0.293h-2zM24 23c0-0.796 0.316-1.559 0.879-2.121s1.326-0.879 2.121-0.879h2c0.796 0 1.559 0.316 2.121 0.879s0.879 1.326 0.879 2.121v2c0 0.796-0.316 1.559-0.879 2.121s-1.326 0.879-2.121 0.879h-2c-0.796 0-1.559-0.316-2.121-0.879s-0.879-1.326-0.879-2.121v-2zM27 22c-0.265 0-0.52 0.105-0.707 0.293s-0.293 0.442-0.293 0.707v2c0 0.265 0.105 0.52 0.293 0.707s0.442 0.293 0.707 0.293h2c0.265 0 0.52-0.105 0.707-0.293s0.293-0.442 0.293-0.707v-2c0-0.265-0.105-0.52-0.293-0.707s-0.442-0.293-0.707-0.293h-2z"></path>
</symbol>
<symbol id="icon-bi_grid" viewBox="0 0 32 32">
<path d="M2 5c0-0.796 0.316-1.559 0.879-2.121s1.326-0.879 2.121-0.879h6c0.796 0 1.559 0.316 2.121 0.879s0.879 1.326 0.879 2.121v6c0 0.796-0.316 1.559-0.879 2.121s-1.326 0.879-2.121 0.879h-6c-0.796 0-1.559-0.316-2.121-0.879s-0.879-1.326-0.879-2.121v-6zM5 4c-0.265 0-0.52 0.105-0.707 0.293s-0.293 0.442-0.293 0.707v6c0 0.265 0.105 0.52 0.293 0.707s0.442 0.293 0.707 0.293h6c0.265 0 0.52-0.105 0.707-0.293s0.293-0.442 0.293-0.707v-6c0-0.265-0.105-0.52-0.293-0.707s-0.442-0.293-0.707-0.293h-6zM18 5c0-0.796 0.316-1.559 0.879-2.121s1.326-0.879 2.121-0.879h6c0.796 0 1.559 0.316 2.121 0.879s0.879 1.326 0.879 2.121v6c0 0.796-0.316 1.559-0.879 2.121s-1.326 0.879-2.121 0.879h-6c-0.796 0-1.559-0.316-2.121-0.879s-0.879-1.326-0.879-2.121v-6zM21 4c-0.265 0-0.52 0.105-0.707 0.293s-0.293 0.442-0.293 0.707v6c0 0.265 0.105 0.52 0.293 0.707s0.442 0.293 0.707 0.293h6c0.265 0 0.52-0.105 0.707-0.293s0.293-0.442 0.293-0.707v-6c0-0.265-0.105-0.52-0.293-0.707s-0.442-0.293-0.707-0.293h-6zM2 21c0-0.796 0.316-1.559 0.879-2.121s1.326-0.879 2.121-0.879h6c0.796 0 1.559 0.316 2.121 0.879s0.879 1.326 0.879 2.121v6c0 0.796-0.316 1.559-0.879 2.121s-1.326 0.879-2.121 0.879h-6c-0.796 0-1.559-0.316-2.121-0.879s-0.879-1.326-0.879-2.121v-6zM5 20c-0.265 0-0.52 0.105-0.707 0.293s-0.293 0.442-0.293 0.707v6c0 0.265 0.105 0.52 0.293 0.707s0.442 0.293 0.707 0.293h6c0.265 0 0.52-0.105 0.707-0.293s0.293-0.442 0.293-0.707v-6c0-0.265-0.105-0.52-0.293-0.707s-0.442-0.293-0.707-0.293h-6zM18 21c0-0.796 0.316-1.559 0.879-2.121s1.326-0.879 2.121-0.879h6c0.796 0 1.559 0.316 2.121 0.879s0.879 1.326 0.879 2.121v6c0 0.796-0.316 1.559-0.879 2.121s-1.326 0.879-2.121 0.879h-6c-0.796 0-1.559-0.316-2.121-0.879s-0.879-1.326-0.879-2.121v-6zM21 20c-0.265 0-0.52 0.105-0.707 0.293s-0.293 0.442-0.293 0.707v6c0 0.265 0.105 0.52 0.293 0.707s0.442 0.293 0.707 0.293h6c0.265 0 0.52-0.105 0.707-0.293s0.293-0.442 0.293-0.707v-6c0-0.265-0.105-0.52-0.293-0.707s-0.442-0.293-0.707-0.293h-6z"></path>
</symbol>
<symbol id="icon-bi_grid-3x3-gap" viewBox="0 0 32 32">
<path d="M8 4v4h-4v-4h4zM10 28v-4c0-0.53-0.211-1.039-0.586-1.414s-0.884-0.586-1.414-0.586h-4c-0.53 0-1.039 0.211-1.414 0.586s-0.586 0.884-0.586 1.414v4c0 0.53 0.211 1.039 0.586 1.414s0.884 0.586 1.414 0.586h4c0.53 0 1.039-0.211 1.414-0.586s0.586-0.884 0.586-1.414zM10 18v-4c0-0.53-0.211-1.039-0.586-1.414s-0.884-0.586-1.414-0.586h-4c-0.53 0-1.039 0.211-1.414 0.586s-0.586 0.884-0.586 1.414v4c0 0.53 0.211 1.039 0.586 1.414s0.884 0.586 1.414 0.586h4c0.53 0 1.039-0.211 1.414-0.586s0.586-0.884 0.586-1.414zM10 8v-4c0-0.53-0.211-1.039-0.586-1.414s-0.884-0.586-1.414-0.586h-4c-0.53 0-1.039 0.211-1.414 0.586s-0.586 0.884-0.586 1.414v4c0 0.53 0.211 1.039 0.586 1.414s0.884 0.586 1.414 0.586h4c0.53 0 1.039-0.211 1.414-0.586s0.586-0.884 0.586-1.414zM20 28v-4c0-0.53-0.211-1.039-0.586-1.414s-0.884-0.586-1.414-0.586h-4c-0.53 0-1.039 0.211-1.414 0.586s-0.586 0.884-0.586 1.414v4c0 0.53 0.211 1.039 0.586 1.414s0.884 0.586 1.414 0.586h4c0.53 0 1.039-0.211 1.414-0.586s0.586-0.884 0.586-1.414zM20 18v-4c0-0.53-0.211-1.039-0.586-1.414s-0.884-0.586-1.414-0.586h-4c-0.53 0-1.039 0.211-1.414 0.586s-0.586 0.884-0.586 1.414v4c0 0.53 0.211 1.039 0.586 1.414s0.884 0.586 1.414 0.586h4c0.53 0 1.039-0.211 1.414-0.586s0.586-0.884 0.586-1.414zM20 8v-4c0-0.53-0.211-1.039-0.586-1.414s-0.884-0.586-1.414-0.586h-4c-0.53 0-1.039 0.211-1.414 0.586s-0.586 0.884-0.586 1.414v4c0 0.53 0.211 1.039 0.586 1.414s0.884 0.586 1.414 0.586h4c0.53 0 1.039-0.211 1.414-0.586s0.586-0.884 0.586-1.414zM18 4v4h-4v-4h4zM28 4v4h-4v-4h4zM8 14v4h-4v-4h4zM18 14v4h-4v-4h4zM28 14h-4v4h4v-4zM8 24v4h-4v-4h4zM18 24v4h-4v-4h4zM28 24v4h-4v-4h4zM24 2c-0.53 0-1.039 0.211-1.414 0.586s-0.586 0.884-0.586 1.414v4c0 0.53 0.211 1.039 0.586 1.414s0.884 0.586 1.414 0.586h4c0.53 0 1.039-0.211 1.414-0.586s0.586-0.884 0.586-1.414v-4c0-0.53-0.211-1.039-0.586-1.414s-0.884-0.586-1.414-0.586h-4zM22 14c0-0.53 0.211-1.039 0.586-1.414s0.884-0.586 1.414-0.586h4c0.53 0 1.039 0.211 1.414 0.586s0.586 0.884 0.586 1.414v4c0 0.53-0.211 1.039-0.586 1.414s-0.884 0.586-1.414 0.586h-4c-0.53 0-1.039-0.211-1.414-0.586s-0.586-0.884-0.586-1.414v-4zM24 22c-0.53 0-1.039 0.211-1.414 0.586s-0.586 0.884-0.586 1.414v4c0 0.53 0.211 1.039 0.586 1.414s0.884 0.586 1.414 0.586h4c0.53 0 1.039-0.211 1.414-0.586s0.586-0.884 0.586-1.414v-4c0-0.53-0.211-1.039-0.586-1.414s-0.884-0.586-1.414-0.586h-4z"></path>
</symbol>
<symbol id="icon-cup-hot" viewBox="0 0 32 32">
<path d="M1 12c-0.15 0-0.297 0.034-0.432 0.098s-0.254 0.159-0.347 0.276c-0.094 0.117-0.16 0.253-0.194 0.399s-0.035 0.297-0.003 0.443l3.304 14.868c0.247 1.11 0.865 2.104 1.752 2.816s1.991 1.1 3.128 1.1h11.584c1.138-0 2.241-0.388 3.128-1.1s1.505-1.705 1.752-2.816l0.262-1.18c1.53 0.286 3.111-0.033 4.41-0.891s2.213-2.186 2.551-3.706c0.337-1.519 0.071-3.11-0.742-4.437s-2.111-2.285-3.618-2.674l0.442-1.98c0.032-0.146 0.031-0.298-0.003-0.443s-0.1-0.282-0.194-0.399c-0.094-0.117-0.212-0.211-0.347-0.276s-0.283-0.098-0.432-0.098h-26zM26 25c-0.212 0-0.423-0.017-0.632-0.050l1.734-7.796c0.925 0.268 1.722 0.86 2.246 1.669s0.738 1.778 0.604 2.732c-0.134 0.954-0.607 1.827-1.333 2.46s-1.656 0.983-2.619 0.985zM5.28 27.65l-3.034-13.65h23.508l-3.034 13.65c-0.148 0.666-0.519 1.262-1.051 1.69s-1.195 0.66-1.877 0.66h-11.584c-0.683-0-1.345-0.233-1.877-0.66s-0.903-1.023-1.051-1.69z"></path>
<path d="M8.8 1.6l-0.006 0.008-0.028 0.038c-0.146 0.2-0.282 0.407-0.408 0.62-0.107 0.171-0.202 0.349-0.282 0.534-0.052 0.12-0.068 0.184-0.074 0.206v0.008c0.023 0.177 0.085 0.346 0.182 0.496 0.15 0.266 0.356 0.544 0.616 0.89l0.020 0.024c0.236 0.316 0.52 0.694 0.74 1.086 0.224 0.4 0.44 0.91 0.44 1.49 0 0.376-0.13 0.736-0.238 0.988-0.116 0.268-0.251 0.527-0.404 0.776-0.157 0.262-0.326 0.517-0.506 0.764l-0.036 0.050-0.010 0.016-0.004 0.004c-0.159 0.212-0.396 0.353-0.658 0.391s-0.529-0.030-0.742-0.189-0.353-0.396-0.391-0.658c-0.038-0.263 0.030-0.529 0.189-0.742l0.006-0.008 0.028-0.038c0.146-0.2 0.282-0.407 0.408-0.62 0.107-0.171 0.202-0.349 0.282-0.534 0.052-0.12 0.068-0.184 0.074-0.206-0.021-0.179-0.083-0.352-0.18-0.504-0.186-0.31-0.392-0.608-0.618-0.89l-0.020-0.024c-0.27-0.345-0.517-0.708-0.74-1.086-0.272-0.451-0.424-0.964-0.44-1.49 0-0.376 0.13-0.736 0.238-0.988 0.118-0.276 0.268-0.548 0.404-0.776 0.159-0.261 0.328-0.516 0.506-0.764l0.050-0.070c0.159-0.212 0.396-0.353 0.658-0.391s0.529 0.030 0.742 0.189c0.212 0.159 0.353 0.396 0.391 0.658s-0.030 0.529-0.189 0.742zM14.8 1.6l-0.006 0.008-0.028 0.038c-0.146 0.2-0.282 0.407-0.408 0.62-0.107 0.171-0.202 0.349-0.282 0.534-0.052 0.12-0.068 0.184-0.074 0.206v0.008c0.023 0.177 0.085 0.346 0.182 0.496 0.15 0.266 0.356 0.544 0.616 0.89l0.020 0.024c0.236 0.316 0.52 0.694 0.74 1.086 0.224 0.4 0.44 0.91 0.44 1.49 0 0.376-0.13 0.736-0.238 0.988-0.116 0.268-0.251 0.527-0.404 0.776-0.157 0.262-0.326 0.517-0.506 0.764l-0.036 0.050-0.010 0.016-0.004 0.004c-0.159 0.212-0.396 0.353-0.658 0.391s-0.529-0.030-0.742-0.189-0.353-0.396-0.391-0.658c-0.038-0.263 0.030-0.529 0.189-0.742l0.006-0.008 0.028-0.038c0.146-0.2 0.282-0.407 0.408-0.62 0.107-0.171 0.202-0.349 0.282-0.534 0.052-0.12 0.068-0.184 0.074-0.206-0.021-0.179-0.083-0.352-0.18-0.504-0.186-0.31-0.392-0.608-0.618-0.89l-0.020-0.024c-0.27-0.345-0.517-0.708-0.74-1.086-0.272-0.451-0.424-0.964-0.44-1.49 0-0.376 0.13-0.736 0.238-0.988 0.118-0.276 0.268-0.548 0.404-0.776 0.159-0.261 0.328-0.516 0.506-0.764l0.050-0.070c0.159-0.212 0.396-0.353 0.658-0.391s0.529 0.030 0.742 0.189 0.353 0.396 0.391 0.658c0.038 0.263-0.030 0.529-0.189 0.742zM20.8 1.6l-0.006 0.008-0.028 0.038c-0.145 0.2-0.282 0.407-0.408 0.62-0.107 0.171-0.202 0.349-0.282 0.534-0.052 0.12-0.068 0.184-0.074 0.206v0.008c0.023 0.177 0.085 0.346 0.182 0.496 0.15 0.266 0.356 0.544 0.616 0.89l0.020 0.024c0.236 0.316 0.52 0.694 0.74 1.086 0.224 0.4 0.44 0.91 0.44 1.49 0 0.376-0.13 0.736-0.238 0.988-0.116 0.268-0.251 0.527-0.404 0.776-0.156 0.262-0.324 0.517-0.504 0.764l-0.038 0.050-0.010 0.016-0.004 0.004c-0.159 0.212-0.396 0.353-0.658 0.391s-0.529-0.030-0.742-0.189-0.353-0.396-0.391-0.658c-0.038-0.263 0.030-0.529 0.189-0.742l0.006-0.008 0.028-0.038c0.145-0.2 0.282-0.407 0.408-0.62 0.107-0.171 0.202-0.349 0.282-0.534 0.052-0.12 0.068-0.184 0.074-0.206-0.021-0.179-0.083-0.352-0.18-0.504-0.186-0.31-0.392-0.608-0.618-0.89l-0.020-0.024c-0.27-0.345-0.517-0.708-0.74-1.086-0.272-0.451-0.424-0.964-0.44-1.49 0-0.376 0.13-0.736 0.238-0.988 0.118-0.276 0.268-0.548 0.404-0.776 0.159-0.261 0.328-0.516 0.506-0.764l0.050-0.070c0.159-0.212 0.396-0.353 0.658-0.391s0.529 0.030 0.742 0.189 0.353 0.396 0.391 0.658c0.038 0.263-0.030 0.529-0.189 0.742z"></path>
</symbol>
<symbol id="icon-hurt" viewBox="0 0 32 32">
<path d="M16 13.139l-1.788-3.578c-0.444-0.886-1.214-2.16-2.304-3.19-1.072-1.014-2.356-1.704-3.908-1.704-3.352 0-6 2.652-6 5.84 0 2.422 1.108 4.132 3.736 6.74 0.674 0.668 1.442 1.39 2.292 2.186 2.216 2.080 4.972 4.668 7.972 8.128 3-3.46 5.756-6.048 7.972-8.128 0.85-0.796 1.62-1.52 2.292-2.186 2.628-2.608 3.736-4.318 3.736-6.74 0-3.188-2.648-5.84-6-5.84-1.554 0-2.836 0.69-3.908 1.704-1.090 1.030-1.86 2.304-2.304 3.19l-1.788 3.578zM16.784 29.723c-0.096 0.114-0.216 0.206-0.352 0.269s-0.283 0.095-0.432 0.095-0.297-0.033-0.432-0.095c-0.135-0.063-0.255-0.155-0.352-0.269-3.202-3.804-6.1-6.524-8.486-8.762-4.13-3.878-6.73-6.316-6.73-10.454 0-4.33 3.58-7.84 8-7.84 3.2 0 5.438 2.1 6.808 4.016 0.52 0.73 0.916 1.432 1.192 1.984 0.346-0.691 0.745-1.354 1.192-1.984 1.37-1.918 3.608-4.016 6.808-4.016 4.42 0 8 3.51 8 7.84 0 4.138-2.6 6.576-6.73 10.454-2.386 2.24-5.284 4.962-8.486 8.762z"></path>
</symbol>
<symbol id="icon-star" viewBox="0 0 32 32">
<path  d="M15.116 1.676c0.375-0.711 1.394-0.711 1.769 0l3.777 7.158c0.145 0.274 0.408 0.466 0.714 0.519l7.975 1.38c0.792 0.137 1.107 1.106 0.547 1.682l-5.641 5.804c-0.216 0.222-0.317 0.532-0.273 0.839l1.152 8.010c0.114 0.796-0.71 1.395-1.431 1.040l-7.263-3.571c-0.278-0.137-0.604-0.137-0.882 0l-7.262 3.571c-0.722 0.355-1.546-0.244-1.431-1.040l1.152-8.010c0.044-0.307-0.057-0.617-0.273-0.839l-5.64-5.804c-0.56-0.577-0.246-1.545 0.547-1.682l7.974-1.38c0.306-0.053 0.569-0.244 0.714-0.519l3.776-7.158z"></path>
</symbol>
<symbol id="icon-TravelTrucks" viewBox="0 0 290 32">
<path fill="#475467" style="fill: var(--color1, #475467)" d="M288.838 15.333h-7.697c-0.041-0.475-0.207-0.884-0.501-1.227-0.292-0.343-0.672-0.606-1.135-0.788-0.457-0.192-0.96-0.288-1.517-0.288-0.717 0-1.333 0.131-1.847 0.394-0.516 0.263-0.768 0.636-0.757 1.121-0.011 0.343 0.137 0.662 0.439 0.955 0.311 0.293 0.913 0.52 1.803 0.682l4.727 0.849c2.383 0.434 4.156 1.167 5.318 2.197 1.171 1.020 1.762 2.389 1.773 4.106-0.011 1.657-0.506 3.096-1.485 4.318-0.971 1.212-2.3 2.151-3.985 2.818-1.677 0.656-3.593 0.985-5.743 0.985-3.556 0-6.338-0.727-8.348-2.182-2.001-1.454-3.117-3.374-3.349-5.758h8.303c0.111 0.738 0.476 1.308 1.090 1.712 0.627 0.394 1.414 0.591 2.364 0.591 0.768 0 1.399-0.131 1.894-0.394 0.506-0.263 0.764-0.636 0.772-1.121-0.009-0.445-0.233-0.798-0.666-1.061-0.425-0.263-1.092-0.475-2.001-0.636l-4.119-0.727c-2.374-0.414-4.151-1.202-5.333-2.364s-1.769-2.657-1.758-4.485c-0.011-1.616 0.414-2.985 1.271-4.106 0.868-1.131 2.106-1.99 3.712-2.576 1.617-0.596 3.531-0.894 5.743-0.894 3.364 0 6.016 0.697 7.955 2.091 1.95 1.394 2.974 3.323 3.076 5.788z"></path>
<path fill="#475467" style="fill: var(--color1, #475467)" d="M248.352 25.515l0.060-9.939h1.092l5.636-7.818h9.393l-9.455 12.182h-2.364l-4.363 5.576zM240.836 31.030v-31.030h8.365v31.030h-8.365zM255.2 31.030l-5.333-9.212 5.455-5.939 9.455 15.152h-9.577z"></path>
<path fill="#475467" style="fill: var(--color1, #475467)" d="M225.321 31.454c-2.526 0-4.687-0.5-6.485-1.5-1.798-1.010-3.177-2.414-4.137-4.212-0.96-1.808-1.439-3.904-1.439-6.288s0.479-4.475 1.439-6.273c0.96-1.808 2.338-3.212 4.137-4.212 1.798-1.010 3.959-1.515 6.485-1.515 2.283 0 4.258 0.414 5.924 1.242 1.677 0.818 2.974 1.98 3.893 3.485 0.919 1.495 1.385 3.253 1.395 5.273h-7.759c-0.111-1.222-0.465-2.152-1.060-2.788-0.587-0.646-1.344-0.97-2.272-0.97-0.727 0-1.365 0.212-1.909 0.636-0.546 0.414-0.971 1.045-1.274 1.894-0.303 0.838-0.454 1.894-0.454 3.167s0.151 2.333 0.454 3.182c0.303 0.838 0.727 1.47 1.274 1.894 0.544 0.414 1.182 0.621 1.909 0.621 0.617 0 1.161-0.141 1.636-0.424 0.474-0.293 0.858-0.717 1.152-1.273 0.303-0.566 0.484-1.252 0.544-2.061h7.759c-0.032 2.051-0.501 3.838-1.41 5.364-0.909 1.515-2.197 2.687-3.863 3.515-1.658 0.828-3.637 1.242-5.939 1.242z"></path>
<path fill="#475467" style="fill: var(--color1, #475467)" d="M200.637 20.848v-13.091h8.364v23.273h-7.939v-4.424h-0.243c-0.505 1.485-1.389 2.646-2.651 3.485-1.263 0.828-2.763 1.242-4.5 1.242-1.626 0-3.051-0.374-4.273-1.121-1.212-0.748-2.157-1.778-2.833-3.091-0.667-1.313-1.005-2.818-1.015-4.515v-14.849h8.364v13.091c0.010 1.152 0.303 2.056 0.879 2.712 0.586 0.657 1.404 0.985 2.455 0.985 0.697 0 1.298-0.147 1.803-0.439 0.515-0.303 0.909-0.727 1.182-1.273 0.283-0.556 0.419-1.217 0.409-1.985z"></path>
<path fill="#475467" style="fill: var(--color1, #475467)" d="M166.193 31.030v-23.273h8.121v4.424h0.242c0.424-1.636 1.096-2.833 2.015-3.591 0.929-0.758 2.015-1.136 3.258-1.136 0.364 0 0.722 0.030 1.076 0.091 0.364 0.051 0.712 0.126 1.045 0.227v7.136c-0.414-0.141-0.924-0.247-1.53-0.318s-1.126-0.106-1.561-0.106c-0.818 0-1.556 0.187-2.212 0.561-0.646 0.364-1.156 0.879-1.53 1.545-0.374 0.657-0.561 1.429-0.561 2.318v12.121h-8.364z"></path>
<path fill="#475467" style="fill: var(--color1, #475467)" d="M137.495 6.788v-6.788h26.97v6.788h-9.333v24.243h-8.303v-24.243h-9.333z"></path>
<path fill="#101828" style="fill: var(--color2, #101828)" d="M133.35 0v31.030h-8.364v-31.030h8.364z"></path>
<path fill="#101828" style="fill: var(--color2, #101828)" d="M109.326 31.454c-2.485 0-4.626-0.475-6.424-1.424-1.788-0.96-3.166-2.333-4.136-4.121-0.96-1.798-1.439-3.949-1.439-6.455 0-2.404 0.485-4.505 1.454-6.303s2.338-3.197 4.106-4.197 3.854-1.5 6.258-1.5c1.757 0 3.348 0.273 4.773 0.818s2.641 1.338 3.651 2.379c1.010 1.030 1.788 2.283 2.333 3.758s0.818 3.136 0.818 4.985v1.939h-20.788v-4.606h13.091c-0.010-0.667-0.182-1.253-0.515-1.758-0.323-0.515-0.763-0.914-1.318-1.197-0.546-0.293-1.167-0.439-1.864-0.439-0.677 0-1.298 0.146-1.864 0.439-0.566 0.283-1.020 0.677-1.364 1.182-0.333 0.505-0.51 1.096-0.53 1.773v4.97c0 0.747 0.157 1.414 0.47 2s0.763 1.045 1.348 1.379c0.586 0.333 1.293 0.5 2.121 0.5 0.576 0 1.101-0.081 1.576-0.242 0.485-0.162 0.899-0.394 1.242-0.697 0.343-0.313 0.596-0.687 0.758-1.121h7.636c-0.263 1.616-0.884 3.020-1.864 4.212-0.98 1.182-2.278 2.101-3.894 2.758-1.606 0.646-3.485 0.97-5.636 0.97z"></path>
<path fill="#101828" style="fill: var(--color2, #101828)" d="M95.651 7.758l-7.818 23.273h-9.697l-7.818-23.273h8.788l3.758 15.394h0.242l3.758-15.394h8.788z"></path>
<path fill="#101828" style="fill: var(--color2, #101828)" d="M53.453 31.394c-1.485 0-2.798-0.242-3.939-0.727-1.131-0.495-2.020-1.242-2.667-2.242s-0.97-2.273-0.97-3.818c0-1.273 0.217-2.359 0.652-3.258 0.434-0.909 1.040-1.651 1.818-2.227s1.682-1.015 2.712-1.318c1.040-0.303 2.161-0.5 3.364-0.591 1.303-0.101 2.348-0.222 3.136-0.364 0.798-0.151 1.374-0.359 1.727-0.621 0.353-0.273 0.53-0.631 0.53-1.076v-0.061c0-0.606-0.232-1.071-0.697-1.394s-1.061-0.485-1.788-0.485c-0.798 0-1.449 0.177-1.955 0.53-0.495 0.343-0.793 0.874-0.894 1.591h-7.697c0.101-1.414 0.551-2.717 1.348-3.909 0.808-1.202 1.985-2.162 3.53-2.879 1.545-0.727 3.475-1.091 5.788-1.091 1.667 0 3.162 0.197 4.485 0.591 1.323 0.384 2.449 0.924 3.379 1.621 0.929 0.687 1.636 1.495 2.121 2.424 0.495 0.919 0.742 1.919 0.742 3v15.939h-7.818v-3.273h-0.182c-0.465 0.869-1.030 1.571-1.697 2.106-0.657 0.535-1.409 0.924-2.258 1.167-0.838 0.242-1.763 0.364-2.773 0.364zM56.18 26.121c0.636 0 1.232-0.131 1.788-0.394 0.566-0.263 1.025-0.642 1.379-1.136s0.53-1.096 0.53-1.803v-1.939c-0.222 0.091-0.46 0.177-0.712 0.258-0.243 0.081-0.505 0.157-0.788 0.227-0.273 0.071-0.566 0.136-0.879 0.197-0.303 0.061-0.621 0.116-0.954 0.167-0.646 0.101-1.177 0.268-1.591 0.5-0.404 0.222-0.707 0.5-0.909 0.834-0.192 0.323-0.288 0.687-0.288 1.091 0 0.647 0.227 1.142 0.682 1.485s1.035 0.515 1.742 0.515z"></path>
<path fill="#101828" style="fill: var(--color2, #101828)" d="M28.698 31.030v-23.273h8.121v4.424h0.242c0.424-1.636 1.096-2.833 2.015-3.591 0.929-0.758 2.015-1.136 3.258-1.136 0.364 0 0.722 0.030 1.076 0.091 0.364 0.051 0.712 0.126 1.045 0.227v7.136c-0.414-0.141-0.924-0.247-1.53-0.318s-1.126-0.106-1.561-0.106c-0.818 0-1.555 0.187-2.212 0.561-0.646 0.364-1.156 0.879-1.53 1.545-0.374 0.657-0.561 1.429-0.561 2.318v12.121h-8.364z"></path>
<path fill="#101828" style="fill: var(--color2, #101828)" d="M0 6.788v-6.788h26.97v6.788h-9.333v24.243h-8.303v-24.243h-9.333z"></path>
</symbol>
<symbol id="icon-ui-radios" viewBox="0 0 32 32">
<path d="M14 5c0-0.265 0.105-0.52 0.293-0.707s0.442-0.293 0.707-0.293h14c0.265 0 0.52 0.105 0.707 0.293s0.293 0.442 0.293 0.707v2c0 0.265-0.105 0.52-0.293 0.707s-0.442 0.293-0.707 0.293h-14c-0.265 0-0.52-0.105-0.707-0.293s-0.293-0.442-0.293-0.707v-2zM0 24c0-1.591 0.632-3.117 1.757-4.243s2.651-1.757 4.243-1.757 3.117 0.632 4.243 1.757c1.125 1.125 1.757 2.651 1.757 4.243s-0.632 3.117-1.757 4.243c-1.125 1.125-2.651 1.757-4.243 1.757s-3.117-0.632-4.243-1.757c-1.125-1.125-1.757-2.651-1.757-4.243zM14 21c0-0.265 0.105-0.52 0.293-0.707s0.442-0.293 0.707-0.293h14c0.265 0 0.52 0.105 0.707 0.293s0.293 0.442 0.293 0.707v2c0 0.265-0.105 0.52-0.293 0.707s-0.442 0.293-0.707 0.293h-14c-0.265 0-0.52-0.105-0.707-0.293s-0.293-0.442-0.293-0.707v-2zM14 11c0-0.265 0.105-0.52 0.293-0.707s0.442-0.293 0.707-0.293h10c0.265 0 0.52 0.105 0.707 0.293s0.293 0.442 0.293 0.707-0.105 0.52-0.293 0.707c-0.188 0.188-0.442 0.293-0.707 0.293h-10c-0.265 0-0.52-0.105-0.707-0.293s-0.293-0.442-0.293-0.707zM14 27c0-0.265 0.105-0.52 0.293-0.707s0.442-0.293 0.707-0.293h10c0.265 0 0.52 0.105 0.707 0.293s0.293 0.442 0.293 0.707-0.105 0.52-0.293 0.707c-0.188 0.188-0.442 0.293-0.707 0.293h-10c-0.265 0-0.52-0.105-0.707-0.293s-0.293-0.442-0.293-0.707zM6 2c-0.788 0-1.568 0.155-2.296 0.457s-1.389 0.744-1.947 1.301c-0.557 0.557-0.999 1.219-1.301 1.947s-0.457 1.508-0.457 2.296c0 0.788 0.155 1.568 0.457 2.296s0.744 1.389 1.301 1.947c0.557 0.557 1.219 0.999 1.947 1.301s1.508 0.457 2.296 0.457c1.591 0 3.117-0.632 4.243-1.757s1.757-2.651 1.757-4.243c0-1.591-0.632-3.117-1.757-4.243s-2.651-1.757-4.243-1.757zM6 11c-0.796 0-1.559-0.316-2.121-0.879s-0.879-1.326-0.879-2.121c0-0.796 0.316-1.559 0.879-2.121s1.326-0.879 2.121-0.879c0.796 0 1.559 0.316 2.121 0.879s0.879 1.326 0.879 2.121c0 0.796-0.316 1.559-0.879 2.121s-1.326 0.879-2.121 0.879z"></path>
</symbol>
<symbol id="icon-petrol" viewBox="0 0 32 32">
<path d="M6 5c0-0.265 0.105-0.52 0.293-0.707s0.442-0.293 0.707-0.293h10c0.265 0 0.52 0.105 0.707 0.293s0.293 0.442 0.293 0.707v10c0 0.265-0.105 0.52-0.293 0.707s-0.442 0.293-0.707 0.293h-10c-0.265 0-0.52-0.105-0.707-0.293s-0.293-0.442-0.293-0.707v-10z"></path>
<path d="M2 4c0-1.061 0.421-2.078 1.172-2.828s1.768-1.172 2.828-1.172h12c1.061 0 2.078 0.421 2.828 1.172s1.172 1.768 1.172 2.828v16c1.061 0 2.078 0.421 2.828 1.172s1.172 1.768 1.172 2.828v1c0 0.265 0.105 0.52 0.293 0.707s0.442 0.293 0.707 0.293 0.52-0.105 0.707-0.293c0.188-0.188 0.293-0.442 0.293-0.707v-9h-1c-0.265 0-0.52-0.105-0.707-0.293s-0.293-0.442-0.293-0.707v-6.25c0-0.265 0.105-0.52 0.293-0.707s0.442-0.293 0.707-0.293h2.99c-0.022-0.952-0.106-1.788-0.402-2.444-0.158-0.381-0.435-0.702-0.788-0.916-0.368-0.22-0.928-0.39-1.8-0.39-0.265 0-0.52-0.105-0.707-0.293s-0.293-0.442-0.293-0.707 0.105-0.52 0.293-0.707c0.188-0.188 0.442-0.293 0.707-0.293 1.128-0.003 2.069 0.221 2.824 0.672 0.766 0.456 1.268 1.102 1.588 1.814 0.59 1.31 0.588 2.93 0.588 4.162v6.35c0 0.132-0.025 0.262-0.076 0.383s-0.124 0.232-0.217 0.325c-0.093 0.093-0.203 0.167-0.325 0.217s-0.252 0.076-0.383 0.076h-1v9c0 0.796-0.316 1.559-0.879 2.121s-1.326 0.879-2.121 0.879-1.559-0.316-2.121-0.879c-0.563-0.563-0.879-1.326-0.879-2.121v-1c0-0.53-0.211-1.039-0.586-1.414s-0.884-0.586-1.414-0.586v8h1c0.265 0 0.52 0.105 0.707 0.293s0.293 0.442 0.293 0.707-0.105 0.52-0.293 0.707c-0.188 0.188-0.442 0.293-0.707 0.293h-22c-0.265 0-0.52-0.105-0.707-0.293s-0.293-0.442-0.293-0.707 0.105-0.52 0.293-0.707c0.188-0.188 0.442-0.293 0.707-0.293h1v-26zM20 4c0-0.53-0.211-1.039-0.586-1.414s-0.884-0.586-1.414-0.586h-12c-0.53 0-1.039 0.211-1.414 0.586s-0.586 0.884-0.586 1.414v26h16v-26z"></path>
</symbol>
<symbol id="icon-droplet" viewBox="0 0 32 32">
<path d="M14.42 1.6c0.96-1.010 1.58-1.6 1.58-1.6 0.219 0.725 0.466 1.417 0.742 2.076 1.624 3.892 4.146 6.7 6.394 9.2 2.62 2.916 4.864 5.414 4.864 8.724 0 3.183-1.264 6.235-3.515 8.485s-5.303 3.515-8.485 3.515-6.235-1.264-8.485-3.515c-2.25-2.25-3.515-5.303-3.515-8.485 0-6.664 7.16-14.966 10.42-18.4zM15.246 3.642c-1.285 1.389-2.505 2.837-3.658 4.338-1.452 1.9-2.872 4.016-3.92 6.14-1.060 2.146-1.668 4.156-1.668 5.88 0 2.652 1.054 5.196 2.929 7.071s4.419 2.929 7.071 2.929 5.196-1.054 7.071-2.929c1.875-1.875 2.929-4.419 2.929-7.071 0-2.402-1.592-4.314-4.362-7.4l-0.060-0.064c-2.078-2.316-4.578-5.094-6.332-8.894z"></path>
<path d="M9.106 15.552c1.64-3.282 3.434-5.506 4.186-6.26l1.416 1.416c-0.58 0.58-2.256 2.622-3.814 5.74l-1.788-0.896z"></path>
</symbol>

</defs>
</svg>
